<svg width="18" height="18" viewBox="0 0 18 18" fill="none" xmlns="http://www.w3.org/2000/svg">
<path fill-rule="evenodd" clip-rule="evenodd" d="M9 12.75C8.6205 12.75 8.2575 12.5752 8.0055 12.2685L4.84575 8.445C4.46775 7.98675 4.392 7.3365 4.6515 6.78675C4.88025 6.3015 5.3355 6 5.84025 6H12.1597C12.6645 6 13.1197 6.3015 13.3485 6.78675C13.608 7.3365 13.5322 7.98675 13.155 8.44425L9.9945 12.2685C9.7425 12.5752 9.3795 12.75 9 12.75Z" fill="#222222"/>
<mask id="mask0" mask-type="alpha" maskUnits="userSpaceOnUse" x="4" y="6" width="10" height="7">
<path fill-rule="evenodd" clip-rule="evenodd" d="M9 12.75C8.6205 12.75 8.2575 12.5752 8.0055 12.2685L4.84575 8.445C4.46775 7.98675 4.392 7.3365 4.6515 6.78675C4.88025 6.3015 5.3355 6 5.84025 6H12.1597C12.6645 6 13.1197 6.3015 13.3485 6.78675C13.608 7.3365 13.5322 7.98675 13.155 8.44425L9.9945 12.2685C9.7425 12.5752 9.3795 12.75 9 12.75Z" fill="white"/>
</mask>
<g mask="url(#mask0)">
</g>
</svg>
