<svg xmlns="http://www.w3.org/2000/svg" width="131.051" height="73.72" viewBox="0 0 131.051 73.72">
  <g id="Group_92" data-name="Group 92" transform="translate(-111.184 -283.352)">
    <path id="Path_1" data-name="Path 1" d="M366.385,386.069c2.175-3.517,4.333-10.368,9.184-10.368,3.572,0,4.051,2.568,4.376,6.043-3.719-2.732-5.622-.293-7.413,2.432l-3.581,5.445,6.423,8.392a39.608,39.608,0,0,0,4.433,5.27,8.555,8.555,0,0,0,2.429,1.333q-1.2.347-2.147.521a13.261,13.261,0,0,1-2.337.174,4.655,4.655,0,0,1-2.932-.84,14.953,14.953,0,0,1-2.676-3.156l-5.6-7.762-2.274,3.707c-2.326,3.792-5.836,7.579-10.678,8.948-8.619,2.437-19.464-1.068-21.78-10.338a18.808,18.808,0,0,1,1.387-13.7q3.253-6.227,11.13-6.226a10.556,10.556,0,0,1,6.015,1.592,6.775,6.775,0,0,1,2.285,9.151,10.7,10.7,0,0,1-4.41,3.909,25.07,25.07,0,0,1-5.619,2.2,34.05,34.05,0,0,1-6.082,1.043,1.837,1.837,0,0,0,.058.463l.1.406c.919,3.678,3.919,6.2,7.634,7.235A13.842,13.842,0,0,0,356.02,400.1a22.5,22.5,0,0,0,5.815-6.6l2.058-3.36-4.917-6.718a41.226,41.226,0,0,0-4.187-5.068,7.987,7.987,0,0,0-2.548-1.477h3.893a7,7,0,0,1,6.106,3.278Zm-30.276,4.762a22.35,22.35,0,0,0,8.979-2.78q3.736-2.2,3.013-5.1a3.581,3.581,0,0,0-1.693-2.259,5.927,5.927,0,0,0-2.91-.869,6.509,6.509,0,0,0-5.59,3.244A11.777,11.777,0,0,0,336.108,390.83Z" transform="translate(-143.187 -59.885)" fill="#fff"/>
    <path id="Path_2" data-name="Path 2" d="M313.164,338.761v21.662c0,4.954,1.668,9.369,7.176,12.7-6.329.923-12.317-2.8-12.312-12.368l.013-28.284c0-2.608.155-4.48-2.767-6.14,7.536,0,7.89,3.149,7.891,12.433" transform="translate(-126.422 -27.868)" fill="#fff"/>
    <path id="Path_3" data-name="Path 3" d="M252.268,354.08h6.5c3.134,0,3.953,1,3.966,5.56a5.415,5.415,0,0,0-1.54-1.3,4.294,4.294,0,0,0-1.951-.377h-6.972v15.464c0,7.808-.76,13.215-2.139,16.246-1.887,4.148-5.9,5.538-10.882,3.852,1.915-2.992,1.876-3.793,4.2-3.012,1.434.482,2.425-.84,2.988-2.519s.882-6.626.857-14.856l-.041-13.666c0-1.131-1.044-4.458-3.432-5.389h3.42l.147-3.012q.289-5.734,3.192-8.079t8-2.346a24.312,24.312,0,0,1,3.014.174,23.519,23.519,0,0,1,2.788.521c-3.62,6.107-1.728,3.07-6.855,3.07a4.668,4.668,0,0,0-3.919,1.535c-.8,1.023-1.132,2.864-1.234,5.473Z" transform="translate(-83.606 -37.151)" fill="#fff"/>
    <path id="Path_4" data-name="Path 4" d="M217.106,397.421l-.114,5.653a20.684,20.684,0,0,1-10.025,2.687,12.435,12.435,0,0,1-8.05-2.433,12.594,12.594,0,0,1-4.153-7.009,18.806,18.806,0,0,1,1.387-13.7q3.253-6.227,11.13-6.226a10.555,10.555,0,0,1,6.016,1.593,6.775,6.775,0,0,1,2.285,9.151,10.7,10.7,0,0,1-4.41,3.909,25.044,25.044,0,0,1-5.619,2.2,34.014,34.014,0,0,1-6.082,1.043,1.871,1.871,0,0,0,.057.463l.1.405a8.18,8.18,0,0,0,8.352,6.545,12.232,12.232,0,0,0,5.285-1.1,9.844,9.844,0,0,0,3.839-3.185m-18.04-6.14a22.341,22.341,0,0,0,8.978-2.78q3.737-2.2,3.013-5.1a3.585,3.585,0,0,0-1.693-2.259,5.927,5.927,0,0,0-2.91-.869,6.507,6.507,0,0,0-5.59,3.244A11.776,11.776,0,0,0,199.067,391.281Z" transform="translate(-54.32 -60.335)" fill="#fff"/>
    <path id="Path_5" data-name="Path 5" d="M113,341.96h12.046q6.487,0,9.786,2.143a9.654,9.654,0,0,1,4.206,6.371q1.132,5.271-1.826,8.225a12.384,12.384,0,0,1-8.082,3.36l2.107,3.07c3.622,5.276,9.16,12.616,12.081,15.53a16.709,16.709,0,0,0,8.261,4.8q-1.455.232-2.641.376a17.659,17.659,0,0,1-2.112.145c-7.548,0-11.654-6.367-18.181-15.926L121.8,360.031l2.226.116q4.87.289,7.514-2.23a6.52,6.52,0,0,0,1.786-6.516,6.88,6.88,0,0,0-2.745-4.287q-2.16-1.564-6.561-1.564-.464,0-1.007.029t-1.909.144l-.017,29.6q0,1.333.08,2.259a14.025,14.025,0,0,0,.245,1.68,5.488,5.488,0,0,0,.752,1.882,4.434,4.434,0,0,0,1.508,1.361H112.782a3.663,3.663,0,0,0,2.134-2.2,15.876,15.876,0,0,0,.689-5.155l-.024-26.005q-.017-1.158-.078-2.115a12.384,12.384,0,0,0-.247-1.824,5.092,5.092,0,0,0-.787-1.911A5.041,5.041,0,0,0,113,341.96" transform="translate(-1.598 -38.005)" fill="#fff"/>
    <path id="Path_11" data-name="Path 11" d="M457.574,393.616h.436a1.754,1.754,0,0,0,.309-.021.355.355,0,0,0,.2-.111.4.4,0,0,0,.078-.259q0-.354-.526-.354h-.5Zm0,.309v1.042h-.365v-2.407h.916a1.033,1.033,0,0,1,.643.165.63.63,0,0,1,.209.521.615.615,0,0,1-.626.662l.687,1.059h-.411l-.635-1.042Zm-1.26-.167a1.819,1.819,0,0,0,.226.895,1.611,1.611,0,0,0,.614.624,1.739,1.739,0,0,0,1.716,0,1.62,1.62,0,0,0,.609-.624,1.815,1.815,0,0,0,.226-.895,1.845,1.845,0,0,0-.127-.683,1.82,1.82,0,0,0-.366-.553,1.581,1.581,0,0,0-.536-.369,1.783,1.783,0,0,0-1.326,0,1.716,1.716,0,0,0-.547.369,1.758,1.758,0,0,0-.364.558A1.829,1.829,0,0,0,456.315,393.759Zm1.7,2.095a2.165,2.165,0,0,1-.814-.155,2.135,2.135,0,0,1-.679-.443,1.936,1.936,0,0,1-.464-.668,2.1,2.1,0,0,1-.166-.83,1.975,1.975,0,0,1,.287-1.06,2.09,2.09,0,0,1,.778-.752,2.192,2.192,0,0,1,1.864-.116,2.1,2.1,0,0,1,.679.443,2.07,2.07,0,0,1,.459.662,2.043,2.043,0,0,1,.166.823,2.058,2.058,0,0,1-.624,1.5,2.131,2.131,0,0,1-.679.443A2.106,2.106,0,0,1,458.018,395.854Z" transform="translate(-224.095 -70.245)" fill="#fff"/>
    <path id="Path_12" data-name="Path 12" d="M375.076,354.293c-11.825-3.677-16.059-13.107-28.9-12.844,5.073-1.72,28.9,4.667,28.9,12.844" transform="translate(-152.946 -37.49)" fill="#fff" fill-rule="evenodd"/>
    <path id="Path_13" data-name="Path 13" d="M427.632,316.8c-1.131-8.317.158-14.577,2.968-22.019a48.6,48.6,0,0,1,3.861-8.716c2.67-4.395,1.274-2.754.459,0-2.843,9.6-.792,18.626-7.288,30.735" transform="translate(-205.502 0)" fill="#fff" fill-rule="evenodd"/>
    <path id="Path_14" data-name="Path 14" d="M428.386,340.636c3.683-8.28,21.94-22.513,19.955-20.3-3.932,4.386-14.345,18.429-19.955,20.3" transform="translate(-206.256 -23.833)" fill="#fff" fill-rule="evenodd"/>
  </g>
</svg>
