<svg xmlns="http://www.w3.org/2000/svg" width="181.101" height="101.038" viewBox="0 0 181.101 101.038">
  <g id="Group_1" data-name="Group 1" transform="translate(-109.698 -283.352)">
    <path id="Path_1" data-name="Path 1" d="M379.45,389.911c2.981-4.82,5.938-14.21,12.587-14.21,4.9,0,5.552,3.519,6,8.282-5.1-3.745-7.705-.4-10.16,3.334l-4.908,7.463,8.8,11.5c3.061,4,5.059,6.43,6.076,7.223a11.723,11.723,0,0,0,3.329,1.827q-1.644.476-2.942.715a18.176,18.176,0,0,1-3.2.238,6.38,6.38,0,0,1-4.019-1.151,20.5,20.5,0,0,1-3.668-4.326l-7.681-10.638-3.117,5.081c-3.189,5.2-8,10.388-14.635,12.264-11.813,3.34-26.677-1.464-29.851-14.169a25.778,25.778,0,0,1,1.9-18.774q4.458-8.535,15.255-8.533a14.467,14.467,0,0,1,8.245,2.183,9.286,9.286,0,0,1,3.132,12.542,14.671,14.671,0,0,1-6.045,5.358,34.36,34.36,0,0,1-7.7,3.018,46.664,46.664,0,0,1-8.335,1.429,2.518,2.518,0,0,0,.079.635l.138.556c1.259,5.041,5.371,8.494,10.463,9.916a18.971,18.971,0,0,0,16.055-2.537,30.831,30.831,0,0,0,7.97-9.046l2.821-4.6-6.739-9.208a56.5,56.5,0,0,0-5.739-6.947,10.945,10.945,0,0,0-3.492-2.024H365.4a9.587,9.587,0,0,1,8.368,4.492Zm-41.5,6.526a30.633,30.633,0,0,0,12.306-3.811q5.12-3.017,4.129-6.986a4.908,4.908,0,0,0-2.32-3.1,8.124,8.124,0,0,0-3.988-1.191q-4.683,0-7.661,4.447A16.141,16.141,0,0,0,337.954,396.437Z" transform="translate(-114.743 -47.855)" fill="#b7b8b8"/>
    <path id="Path_2" data-name="Path 2" d="M316.088,343.369v29.689c0,6.79,2.286,12.841,9.835,17.4-8.674,1.266-16.881-3.841-16.875-16.951l.018-38.766c0-3.575.212-6.14-3.792-8.415,10.328,0,10.813,4.316,10.815,17.041" transform="translate(-101.346 -22.27)" fill="#b7b8b8"/>
    <path id="Path_3" data-name="Path 3" d="M257.093,359.06H266c4.3,0,5.418,1.372,5.436,7.621a7.422,7.422,0,0,0-2.111-1.786,5.886,5.886,0,0,0-2.674-.517h-9.556v21.2c0,10.7-1.042,18.113-2.931,22.267-2.586,5.686-8.083,7.591-14.915,5.28,2.625-4.1,2.571-5.2,5.757-4.128,1.965.66,3.323-1.152,4.095-3.453s1.209-9.082,1.175-20.362l-.057-18.73c0-1.55-1.43-6.11-4.7-7.386H250.2l.2-4.129q.4-7.859,4.374-11.073t10.964-3.215a33.314,33.314,0,0,1,4.132.238,32.239,32.239,0,0,1,3.821.715c-4.962,8.369-2.368,4.207-9.395,4.207q-3.731,0-5.372,2.1c-1.095,1.4-1.551,3.926-1.691,7.5Z" transform="translate(-67.132 -29.688)" fill="#b7b8b8"/>
    <path id="Path_4" data-name="Path 4" d="M225.638,405.212l-.157,7.748a28.348,28.348,0,0,1-13.74,3.683q-6.906,0-11.033-3.334a17.261,17.261,0,0,1-5.692-9.606,25.775,25.775,0,0,1,1.9-18.774q4.458-8.535,15.254-8.533a14.466,14.466,0,0,1,8.245,2.183,9.285,9.285,0,0,1,3.132,12.542,14.671,14.671,0,0,1-6.045,5.358,34.327,34.327,0,0,1-7.7,3.017,46.62,46.62,0,0,1-8.335,1.429,2.564,2.564,0,0,0,.079.635c.053.212.1.4.139.556a11.211,11.211,0,0,0,11.448,8.97,16.765,16.765,0,0,0,7.244-1.509,13.492,13.492,0,0,0,5.261-4.365M200.913,396.8a30.621,30.621,0,0,0,12.3-3.811q5.122-3.017,4.13-6.986a4.913,4.913,0,0,0-2.321-3.1,8.123,8.123,0,0,0-3.988-1.191q-4.684,0-7.661,4.446A16.14,16.14,0,0,0,200.913,396.8Z" transform="translate(-43.729 -48.215)" fill="#b7b8b8"/>
    <path id="Path_5" data-name="Path 5" d="M113.076,341.96h16.51q8.891,0,13.412,2.938a13.232,13.232,0,0,1,5.765,8.732q1.551,7.224-2.5,11.272t-11.077,4.6l2.887,4.207C143.036,380.945,150.627,391,154.63,395a22.9,22.9,0,0,0,11.322,6.576q-1.995.318-3.62.516a24.209,24.209,0,0,1-2.895.2c-10.345,0-15.972-8.727-24.918-21.828l-9.379-13.734,3.051.159q6.674.4,10.3-3.057t2.448-8.93a9.429,9.429,0,0,0-3.762-5.875q-2.961-2.144-8.993-2.143-.636,0-1.381.04t-2.617.2l-.023,40.565q0,1.827.109,3.1a19.222,19.222,0,0,0,.335,2.3,7.522,7.522,0,0,0,1.03,2.579,6.077,6.077,0,0,0,2.067,1.866H112.782a5.02,5.02,0,0,0,2.925-3.016,21.76,21.76,0,0,0,.944-7.066l-.032-35.642q-.023-1.588-.106-2.9a16.973,16.973,0,0,0-.338-2.5,6.98,6.98,0,0,0-1.079-2.62,6.91,6.91,0,0,0-2.019-1.826" transform="translate(-1.598 -30.37)" fill="#b7b8b8"/>
    <path id="Path_6" data-name="Path 6" d="M376.366,387.667c2.981-4.82,5.938-14.21,12.587-14.21,4.9,0,5.551,3.52,6,8.282-5.1-3.745-7.7-.4-10.16,3.334l-4.908,7.463,8.8,11.5c3.061,4,5.059,6.43,6.075,7.223a11.73,11.73,0,0,0,3.329,1.827q-1.644.475-2.942.715a18.181,18.181,0,0,1-3.2.238,6.379,6.379,0,0,1-4.019-1.151,20.466,20.466,0,0,1-3.667-4.326l-7.681-10.638L373.46,403c-3.189,5.2-8,10.388-14.635,12.264-11.813,3.341-26.677-1.464-29.85-14.169a25.78,25.78,0,0,1,1.9-18.774q4.459-8.534,15.255-8.533a14.47,14.47,0,0,1,8.245,2.183,9.286,9.286,0,0,1,3.131,12.542,14.669,14.669,0,0,1-6.044,5.358,34.361,34.361,0,0,1-7.7,3.017,46.589,46.589,0,0,1-8.336,1.429,2.537,2.537,0,0,0,.079.635c.052.212.1.4.138.556,1.259,5.041,5.371,8.495,10.463,9.917a18.973,18.973,0,0,0,16.055-2.537,30.827,30.827,0,0,0,7.969-9.046l2.821-4.6-6.74-9.208a56.543,56.543,0,0,0-5.739-6.947,10.952,10.952,0,0,0-3.492-2.024h5.336a9.586,9.586,0,0,1,8.368,4.492Zm-41.5,6.527a30.638,30.638,0,0,0,12.306-3.811q5.12-3.017,4.129-6.986a4.909,4.909,0,0,0-2.32-3.1A8.125,8.125,0,0,0,345,379.11q-4.682,0-7.661,4.447A16.143,16.143,0,0,0,334.87,394.193Z" transform="translate(-113.145 -46.692)" fill="#111"/>
    <path id="Path_7" data-name="Path 7" d="M313,341.125v29.689c0,6.79,2.285,12.841,9.835,17.4-8.674,1.266-16.881-3.841-16.875-16.951l.017-38.766c0-3.575.213-6.14-3.791-8.415,10.328,0,10.813,4.316,10.814,17.04" transform="translate(-99.748 -21.107)" fill="#111"/>
    <path id="Path_8" data-name="Path 8" d="M254.009,356.816h8.905c4.3,0,5.417,1.373,5.436,7.621a7.425,7.425,0,0,0-2.111-1.786,5.893,5.893,0,0,0-2.674-.517h-9.556v21.2c0,10.7-1.042,18.112-2.932,22.267-2.585,5.685-8.083,7.591-14.915,5.28,2.625-4.1,2.571-5.2,5.757-4.128,1.964.66,3.323-1.151,4.095-3.454s1.209-9.081,1.174-20.361l-.056-18.73c0-1.55-1.43-6.11-4.7-7.387h4.687l.2-4.128q.4-7.859,4.374-11.073t10.965-3.216a33.3,33.3,0,0,1,4.131.239,32.229,32.229,0,0,1,3.822.715c-4.963,8.369-2.369,4.207-9.395,4.207q-3.731,0-5.372,2.1c-1.095,1.4-1.551,3.926-1.691,7.5Z" transform="translate(-65.533 -28.525)" fill="#111"/>
    <path id="Path_9" data-name="Path 9" d="M222.553,402.969l-.157,7.748a28.347,28.347,0,0,1-13.74,3.682q-6.907,0-11.033-3.334a17.265,17.265,0,0,1-5.692-9.605,25.777,25.777,0,0,1,1.9-18.775q4.458-8.534,15.254-8.533a14.469,14.469,0,0,1,8.245,2.183,9.286,9.286,0,0,1,3.131,12.542,14.671,14.671,0,0,1-6.045,5.358,34.332,34.332,0,0,1-7.7,3.017,46.621,46.621,0,0,1-8.336,1.429,2.559,2.559,0,0,0,.079.635c.053.212.1.4.139.556a11.209,11.209,0,0,0,11.447,8.97,16.766,16.766,0,0,0,7.244-1.509,13.5,13.5,0,0,0,5.261-4.365m-24.725-8.415a30.629,30.629,0,0,0,12.3-3.811q5.121-3.017,4.13-6.986a4.912,4.912,0,0,0-2.321-3.1,8.125,8.125,0,0,0-3.989-1.191q-4.683,0-7.661,4.446A16.141,16.141,0,0,0,197.829,394.554Z" transform="translate(-42.13 -47.052)" fill="#111"/>
    <path id="Path_10" data-name="Path 10" d="M109.992,339.717H126.5q8.891,0,13.412,2.938a13.232,13.232,0,0,1,5.765,8.732q1.551,7.224-2.5,11.272t-11.077,4.6l2.887,4.207c4.964,7.231,12.555,17.291,16.558,21.285a22.9,22.9,0,0,0,11.322,6.576q-1.995.318-3.62.516a24.11,24.11,0,0,1-2.895.2c-10.345,0-15.972-8.727-24.918-21.828l-9.378-13.734,3.051.159q6.674.4,10.3-3.057t2.448-8.93a9.432,9.432,0,0,0-3.762-5.875q-2.96-2.144-8.993-2.144c-.424,0-.884.014-1.381.04s-1.369.093-2.617.2l-.023,40.565q0,1.826.11,3.1a19.285,19.285,0,0,0,.335,2.3,7.53,7.53,0,0,0,1.03,2.58,6.079,6.079,0,0,0,2.068,1.866H109.7a5.02,5.02,0,0,0,2.925-3.016,21.763,21.763,0,0,0,.944-7.066l-.032-35.642q-.023-1.588-.106-2.9a17.035,17.035,0,0,0-.338-2.5,6.98,6.98,0,0,0-1.079-2.62,6.9,6.9,0,0,0-2.018-1.826" transform="translate(0 -29.208)" fill="#111"/>
    <path id="Path_11" data-name="Path 11" d="M458.2,394.335h.6a2.4,2.4,0,0,0,.424-.029.486.486,0,0,0,.271-.153.542.542,0,0,0,.107-.356q0-.485-.721-.485H458.2Zm0,.424v1.429h-.5v-3.3h1.256a1.416,1.416,0,0,1,.881.226.863.863,0,0,1,.287.714.843.843,0,0,1-.858.907l.941,1.452h-.563l-.87-1.429Zm-1.726-.228a2.493,2.493,0,0,0,.31,1.227,2.209,2.209,0,0,0,.842.856,2.384,2.384,0,0,0,2.352,0,2.221,2.221,0,0,0,.834-.856,2.487,2.487,0,0,0,.31-1.227,2.529,2.529,0,0,0-.174-.937,2.494,2.494,0,0,0-.5-.757,2.167,2.167,0,0,0-.734-.506,2.443,2.443,0,0,0-1.818,0,2.351,2.351,0,0,0-.749.506,2.41,2.41,0,0,0-.5.765A2.507,2.507,0,0,0,456.47,394.531ZM458.8,397.4a2.967,2.967,0,0,1-1.116-.212,2.926,2.926,0,0,1-.93-.607,2.654,2.654,0,0,1-.636-.915,2.877,2.877,0,0,1-.227-1.137,2.707,2.707,0,0,1,.394-1.453,2.865,2.865,0,0,1,1.066-1.03,3,3,0,0,1,2.555-.159,2.881,2.881,0,0,1,.93.607,2.838,2.838,0,0,1,.629.907,2.8,2.8,0,0,1,.227,1.127,2.82,2.82,0,0,1-.856,2.052,2.921,2.921,0,0,1-.93.607A2.887,2.887,0,0,1,458.8,397.4Z" transform="translate(-179.398 -56.133)" fill="#111"/>
    <path id="Path_12" data-name="Path 12" d="M385.785,359.157c-16.207-5.04-22.01-17.965-39.609-17.6,6.952-2.357,39.609,6.4,39.609,17.6" transform="translate(-122.542 -29.959)" fill="#009845" fill-rule="evenodd"/>
    <path id="Path_13" data-name="Path 13" d="M427.783,329.2c-1.55-11.4.216-19.979,4.068-30.178,1.643-4.352,2.882-7.98,5.291-11.946,3.66-6.023,1.746-3.774.629,0-3.9,13.159-1.086,25.528-9.988,42.124" transform="translate(-164.54 0)" fill="#009845" fill-rule="evenodd"/>
    <path id="Path_14" data-name="Path 14" d="M428.386,348.243c5.048-11.349,30.07-30.856,27.349-27.821-5.388,6.011-19.661,25.259-27.349,27.821" transform="translate(-165.142 -19.045)" fill="#009845" fill-rule="evenodd"/>
  </g>
</svg>
