<svg id="noun_camp_3025452" xmlns="http://www.w3.org/2000/svg" width="20.597" height="18.598" viewBox="0 0 20.597 18.598">
  <g id="Group_78" data-name="Group 78" transform="translate(0 0)">
    <rect id="Rectangle_20" data-name="Rectangle 20" width="7.924" height="1.411" transform="translate(12.673 17.187)" fill="#232474"/>
    <rect id="Rectangle_21" data-name="Rectangle 21" width="7.924" height="1.411" transform="translate(0 17.187)" fill="#232474"/>
    <rect id="Rectangle_22" data-name="Rectangle 22" width="1.411" height="20.407" transform="matrix(0.859, 0.512, -0.512, 0.859, 11.221, 0)" fill="#232474"/>
    <rect id="Rectangle_23" data-name="Rectangle 23" width="20.407" height="1.411" transform="matrix(0.512, 0.859, -0.859, 0.512, 9.421, 0)" fill="#232474"/>
    <path id="Path_92" data-name="Path 92" d="M376.654,565.815H370v-4.893a3.333,3.333,0,0,1,3.336-3.322,3.32,3.32,0,0,1,3.318,3.322Zm-5.243-1.411h3.833v-3.482a1.907,1.907,0,0,0-1.907-1.912,1.922,1.922,0,0,0-1.926,1.912Z" transform="translate(-363.04 -547.218)" fill="#232474"/>
  </g>
</svg>
