<svg xmlns="http://www.w3.org/2000/svg" width="11.915" height="11.76" viewBox="0 0 11.915 11.76">
  <g id="noun_Paw_3030631" transform="translate(-9.588 -9.825)">
    <path id="Path_102" data-name="Path 102" d="M24.994,34.892A6.478,6.478,0,0,0,23.157,32.6c-.08-.053-.133-.08-.213-.133a3.067,3.067,0,0,0-3.274.559,7,7,0,0,0-1.784,2.928c-.027.133-.293,1.278.346,1.81a1.165,1.165,0,0,0,.772.24,3.388,3.388,0,0,0,1.358-.346,3.237,3.237,0,0,1,2.316-.293,3.68,3.68,0,0,1,.586.266,2.837,2.837,0,0,0,.719.319,1.738,1.738,0,0,0,1.491-.479c.612-.666.027-1.677-.346-2.343A1.079,1.079,0,0,1,24.994,34.892Z" transform="translate(-6.033 -16.422)" fill="#404040"/>
    <path id="Path_103" data-name="Path 103" d="M19.769,13.945a1.48,1.48,0,0,0,1.012.506.453.453,0,0,0,.186-.027,1.349,1.349,0,0,0,.958-.905,3.169,3.169,0,0,0,.133-1.677,3.107,3.107,0,0,0-.719-1.517,1.3,1.3,0,0,0-1.2-.479,1.349,1.349,0,0,0-.958.905,3.169,3.169,0,0,0-.133,1.677A3,3,0,0,0,19.769,13.945Z" transform="translate(-6.904 0)" fill="#404040"/>
    <path id="Path_104" data-name="Path 104" d="M33.956,14.365c.053,0,.106.027.186.027a1.438,1.438,0,0,0,1.038-.506,3,3,0,0,0,.692-1.464,2.648,2.648,0,0,0-.213-1.6,1.365,1.365,0,0,0-1.038-.852,1.384,1.384,0,0,0-1.225.506,3,3,0,0,0-.692,1.464,2.648,2.648,0,0,0,.213,1.6A1.384,1.384,0,0,0,33.956,14.365Z" transform="translate(-16.938 -0.101)" fill="#404040"/>
    <path id="Path_105" data-name="Path 105" d="M44.949,24.087a1.362,1.362,0,0,0-.612-1.118A1.29,1.29,0,0,0,43.059,23a2.6,2.6,0,0,0-1.118,1.091,2.524,2.524,0,0,0-.373,1.517,1.362,1.362,0,0,0,.612,1.118,1.14,1.14,0,0,0,.586.16,1.734,1.734,0,0,0,.692-.16,2.6,2.6,0,0,0,1.118-1.091A2.559,2.559,0,0,0,44.949,24.087Z" transform="translate(-23.459 -9.53)" fill="#404040"/>
    <path id="Path_106" data-name="Path 106" d="M12.892,26.671a2.667,2.667,0,0,0-.24-1.544,2.867,2.867,0,0,0-1.038-1.2,1.317,1.317,0,0,0-1.278-.133,1.38,1.38,0,0,0-.719,1.065,2.667,2.667,0,0,0,.24,1.544A2.867,2.867,0,0,0,10.9,27.6a1.541,1.541,0,0,0,.8.24,1.044,1.044,0,0,0,.479-.106A1.38,1.38,0,0,0,12.892,26.671Z" transform="translate(0 -10.171)" fill="#404040"/>
  </g>
</svg>
