<svg xmlns="http://www.w3.org/2000/svg" width="123.29" height="109.165" viewBox="0 0 123.29 109.165">
  <g id="Group_46" data-name="Group 46" transform="translate(0)">
    <g id="Group_38" data-name="Group 38" transform="translate(41.911 48.21)">
      <g id="Group_37" data-name="Group 37">
        <path id="Path_38" data-name="Path 38" d="M401.019,268.347a.929.929,0,0,1,.588.161.879.879,0,0,1,.26.595,12.147,12.147,0,0,1,.1,1.328c0,.041,0,.082.006.128.032.587.065,1.25.1,1.994a8.173,8.173,0,0,1,1.438-.235c-.139-1.05-.223-1.947-.257-2.68a2.577,2.577,0,0,1,.142-1.1.728.728,0,0,1,.454-.387,2.174,2.174,0,0,1,.665-.132.912.912,0,0,1,.581.161.9.9,0,0,1,.265.583c.039.289.072.706.1,1.264,0,.04,0,.082.006.122.03.634.069,1.355.115,2.156s.085,1.523.119,2.145a11.613,11.613,0,0,1,.036,1.317.968.968,0,0,1-.225.657,1.031,1.031,0,0,1-.591.3.729.729,0,0,1-.625-.187,2.217,2.217,0,0,1-.366-1.029c-.075-.5-.136-.951-.17-1.374-.015-.162-.028-.3-.044-.4-.175.057-.317.106-.43.145-.141.054-.288.1-.436.146s-.377.094-.681.152c.02.342.038.656.058.929,0,.082.009.163.016.232a7.127,7.127,0,0,1,.032,1.019.547.547,0,0,1-.222.442,1.382,1.382,0,0,1-.614.239.8.8,0,0,1-.648-.173,3.568,3.568,0,0,1-.5-1.916c-.022-.172-.046-.363-.076-.559-.042-.323-.087-.675-.139-1.044-.2-1.3-.326-2.417-.379-3.358a2.362,2.362,0,0,1,.159-1.1.793.793,0,0,1,.483-.4A2.216,2.216,0,0,1,401.019,268.347Z" transform="translate(-399.705 -264.435)" fill="#232474"/>
        <path id="Path_39" data-name="Path 39" d="M430.693,266.615a5.012,5.012,0,0,1,1.529,2.724,15.989,15.989,0,0,1,.382,2.014c.087.681.148,1.26.186,1.735a7.842,7.842,0,0,1,.037.949.671.671,0,0,1-.147.428.951.951,0,0,1-.367.262,1.04,1.04,0,0,1-.476.091.658.658,0,0,1-.458-.208,1.958,1.958,0,0,1-.413-.791c-.058-.182-.112-.386-.169-.621-.045.016-.091.026-.136.042-.285.073-.594.143-.921.209s-.637.118-.92.156q-.046.539-.11.887a.991.991,0,0,1-.2.51.647.647,0,0,1-.477.15c-.071-.011-.136-.075-.2-.18a1.745,1.745,0,0,1-.158-.558,12.049,12.049,0,0,1-.092-1.726,18.885,18.885,0,0,1,.129-2.237,7.562,7.562,0,0,1,1.079-3.5A1.29,1.29,0,0,1,430.693,266.615Zm-.2,5.06c0-.029-.011-.058-.015-.092q-.088-.474-.17-.878a4.253,4.253,0,0,0-.541-1.655c-.1-.119-.19-.157-.285-.113s-.181.186-.257.439a12.33,12.33,0,0,0-.289,2.4c-.006.123-.012.247-.019.358C429.419,271.963,429.942,271.808,430.491,271.675Z" transform="translate(-420.058 -263.204)" fill="#232474"/>
        <path id="Path_40" data-name="Path 40" d="M453.455,263.775a.479.479,0,0,1,.347.09.389.389,0,0,1,.123.246,2.558,2.558,0,0,1,0,.584c-.022.265-.074.643-.157,1.125-.131.783-.308,1.7-.519,2.747s-.409,1.925-.593,2.638a8.511,8.511,0,0,1-.291.95.889.889,0,0,1-.238.385.518.518,0,0,1-.278.085l-.064.006a.693.693,0,0,1-.329-.016c-.1-.025-.187-.128-.25-.3a2.538,2.538,0,0,1-.056-.9c0-.023.011-.071.016-.142s.026-.16.034-.254.025-.172.035-.255.021-.148.028-.2.01-.083.009-.088q-.516-.74-1.2-1.909c-.453-.781-.838-1.458-1.161-2.035a5.441,5.441,0,0,1-.533-1.142.707.707,0,0,1,.056-.589,1.141,1.141,0,0,1,.424-.4,2.076,2.076,0,0,1,.592-.231.9.9,0,0,1,.586.015,1.311,1.311,0,0,1,.592.581,9.243,9.243,0,0,1,.618,1.3c.206.518.395,1.032.559,1.542.178-.782.342-1.457.494-2.02.125-.467.233-.822.315-1.058a1.909,1.909,0,0,1,.235-.477.5.5,0,0,1,.217-.172A1.115,1.115,0,0,1,453.455,263.775Z" transform="translate(-435.214 -261.336)" fill="#232474"/>
        <path id="Path_41" data-name="Path 41" d="M476.826,262.285a5.014,5.014,0,0,1,1.529,2.724,15.928,15.928,0,0,1,.382,2.014c.087.681.147,1.26.186,1.735a7.848,7.848,0,0,1,.037.949.672.672,0,0,1-.147.429.952.952,0,0,1-.367.262,1.035,1.035,0,0,1-.476.091.656.656,0,0,1-.458-.208,1.957,1.957,0,0,1-.413-.791c-.058-.182-.112-.386-.169-.621-.045.016-.091.026-.136.042-.285.073-.594.143-.921.209s-.637.118-.92.156q-.046.539-.109.887a.994.994,0,0,1-.2.51.647.647,0,0,1-.477.15c-.071-.011-.135-.075-.2-.18a1.735,1.735,0,0,1-.157-.558,12.025,12.025,0,0,1-.092-1.726,18.833,18.833,0,0,1,.129-2.237,7.559,7.559,0,0,1,1.079-3.5A1.29,1.29,0,0,1,476.826,262.285Zm-.2,5.06c0-.029-.011-.057-.014-.092q-.088-.474-.17-.878a4.27,4.27,0,0,0-.54-1.655c-.1-.119-.19-.157-.286-.113s-.181.186-.257.439a12.342,12.342,0,0,0-.289,2.4c-.006.123-.012.247-.019.358C475.552,267.632,476.075,267.478,476.623,267.345Z" transform="translate(-453.739 -260.043)" fill="#232474"/>
        <path id="Path_42" data-name="Path 42" d="M494.687,260.3a1.435,1.435,0,0,1,.782-.377,9.9,9.9,0,0,1,1.347-.208c.532-.056,1.048-.1,1.552-.14.145-.008.278-.02.412-.033.064-.006.127-.012.192-.012.858-.128,1.419-.069,1.675.17a1.153,1.153,0,0,1,.109,1.345,1.175,1.175,0,0,1-.674.355,6.967,6.967,0,0,1-.886.147c-.11.01-.208.025-.295.033.035.686.083,1.377.143,2.078a31.941,31.941,0,0,1,.165,3.746c0,.018,0,.041,0,.059a1.3,1.3,0,0,1-.092.575c-.065.117-.244.2-.526.242a1.1,1.1,0,0,1-.859-.194,3.744,3.744,0,0,1-.593-2.146c-.008-.081-.022-.168-.03-.254-.022-.167-.051-.352-.074-.536q-.233-1.643-.368-3.172c-.069.012-.155.032-.252.053a7.366,7.366,0,0,1-.9.154,1.012,1.012,0,0,1-.729-.119.976.976,0,0,1-.261-.536,2.452,2.452,0,0,1-.04-.686A.881.881,0,0,1,494.687,260.3Z" transform="translate(-468.898 -258.193)" fill="#232474"/>
        <path id="Path_43" data-name="Path 43" d="M524.59,257.785a.845.845,0,0,1,.586.208,3.746,3.746,0,0,1,.365,2.156c0,.017,0,.035.005.052q.042,1,.1,2.216c.042.814.084,1.517.135,2.114.014.215.031.4.053.561a5.439,5.439,0,0,1,.043.767.484.484,0,0,1-.18.379,1.166,1.166,0,0,1-.636.194.993.993,0,0,1-.7-.208,3.618,3.618,0,0,1-.592-2.141c-.014-.08-.022-.167-.036-.254-.022-.173-.045-.352-.068-.543-.091-.663-.179-1.35-.263-2.055s-.129-1.308-.14-1.81a2.439,2.439,0,0,1,.17-1.114.8.8,0,0,1,.483-.4A1.924,1.924,0,0,1,524.59,257.785Z" transform="translate(-489.91 -256.965)" fill="#232474"/>
        <path id="Path_44" data-name="Path 44" d="M538.627,255.361a2.425,2.425,0,0,1,.619.929c.052.118.109.229.173.352q.375.727.788,1.486c.282.511.521.944.731,1.316s.33.588.371.66c-.01-.1-.025-.208-.042-.317a30.7,30.7,0,0,1-.337-3.409,2.365,2.365,0,0,1,.172-1.091.821.821,0,0,1,.48-.419,1.923,1.923,0,0,1,.677-.122.807.807,0,0,1,.586.208,3.729,3.729,0,0,1,.366,2.15c0,.017,0,.035,0,.052.028.669.062,1.408.1,2.221s.083,1.511.128,2.108c.009.1.024.2.034.3a2.992,2.992,0,0,1,0,1.04c-.057.327-.3.524-.727.6a1.258,1.258,0,0,1-.955-.342,3.77,3.77,0,0,1-.713-.81,32.828,32.828,0,0,1-1.973-3.162c.033,1.1.087,2.048.175,2.857.012.128.023.249.035.371a6.326,6.326,0,0,1,.056.842.631.631,0,0,1-.175.5,1.169,1.169,0,0,1-.636.194.993.993,0,0,1-.7-.209,3.628,3.628,0,0,1-.592-2.14c-.013-.08-.022-.167-.036-.254-.022-.173-.045-.352-.068-.542-.091-.663-.179-1.35-.263-2.055s-.128-1.308-.141-1.815a2.441,2.441,0,0,1,.17-1.109.806.806,0,0,1,.483-.4C537.982,255.147,538.385,255.15,538.627,255.361Z" transform="translate(-499.773 -254.745)" fill="#232474"/>
      </g>
    </g>
    <g id="Group_39" data-name="Group 39" transform="translate(32.391 64.567)">
      <path id="Path_45" data-name="Path 45" d="M365.75,335.028a.928.928,0,0,1,.587.161.882.882,0,0,1,.261.595,12.3,12.3,0,0,1,.1,1.328c0,.04,0,.082.006.128.032.587.065,1.249.106,1.994a8.181,8.181,0,0,1,1.438-.235c-.139-1.05-.224-1.947-.257-2.68a2.565,2.565,0,0,1,.142-1.1.727.727,0,0,1,.455-.387,2.156,2.156,0,0,1,.665-.133.912.912,0,0,1,.582.162.894.894,0,0,1,.265.582c.039.289.072.706.1,1.265,0,.04,0,.082.005.122.03.634.069,1.354.115,2.156s.085,1.522.12,2.144a11.648,11.648,0,0,1,.036,1.316.966.966,0,0,1-.224.658,1.04,1.04,0,0,1-.591.3.73.73,0,0,1-.625-.187,2.218,2.218,0,0,1-.365-1.028c-.076-.495-.136-.951-.17-1.374-.015-.162-.029-.3-.044-.4-.176.057-.317.106-.43.145-.141.054-.288.1-.436.147s-.377.094-.681.151c.021.343.039.656.058.929,0,.081.009.163.016.232a7.129,7.129,0,0,1,.032,1.019.546.546,0,0,1-.221.441,1.371,1.371,0,0,1-.615.239.793.793,0,0,1-.647-.173,3.567,3.567,0,0,1-.5-1.916c-.022-.173-.046-.364-.076-.559-.042-.323-.087-.675-.139-1.044q-.3-1.944-.379-3.358a2.359,2.359,0,0,1,.159-1.1.793.793,0,0,1,.483-.4A2.213,2.213,0,0,1,365.75,335.028Z" transform="translate(-364.436 -329.474)" fill="#232474"/>
      <path id="Path_46" data-name="Path 46" d="M392.093,332.842c.433-.046.868-.087,1.3-.116a8.38,8.38,0,0,1,.92-.028.868.868,0,0,1,.567.186.554.554,0,0,1,.138.355,1.959,1.959,0,0,1,.009.414.646.646,0,0,1-.143.346,1.89,1.89,0,0,1-1.11.3c-.33.037-.676.076-1.053.105.016.419.026.839.042,1.252.011.373.023.74.034,1.113.248-.035.5-.059.758-.077a4.139,4.139,0,0,1,.665,0,.768.768,0,0,1,.49.17.555.555,0,0,1,.134.314,1.186,1.186,0,0,1-.049.665.409.409,0,0,1-.233.191,2.374,2.374,0,0,1-.548.133c-.34.05-.722.091-1.146.119.029.552.074,1.1.148,1.645q.449-.068.954-.106a6.117,6.117,0,0,1,.881-.013,1.051,1.051,0,0,1,.607.189.639.639,0,0,1,.207.343c.108.4.084.646-.081.755a1.576,1.576,0,0,1-.759.188l-.087.008c-.289.033-.549.063-.791.092a3.4,3.4,0,0,1-2.251-.086c-.345-.254-.6-1.054-.757-2.4-.107-.709-.2-1.477-.286-2.3s-.138-1.529-.156-2.105a2.849,2.849,0,0,1,.107-1.1.7.7,0,0,1,.535-.395A9.339,9.339,0,0,1,392.093,332.842Z" transform="translate(-383.459 -328.01)" fill="#232474"/>
      <path id="Path_47" data-name="Path 47" d="M414.022,331.052a.846.846,0,0,1,.587.208.683.683,0,0,1,.165.27,1.7,1.7,0,0,1,2.232-.425,2.614,2.614,0,0,1,1.279,1.743,3.678,3.678,0,0,1-.177,2.1,3.15,3.15,0,0,1-1.166,1.587,8.107,8.107,0,0,1,1.151.686,3.236,3.236,0,0,1,.5.426.974.974,0,0,1,.2.425c.114.655-.024,1.053-.4,1.194a1.449,1.449,0,0,1-1.3-.269c-.293-.2-.614-.445-.974-.732a9.874,9.874,0,0,1-.905-.809.057.057,0,0,1-.026-.027c.01.11.022.238.035.371s.023.249.035.371a7.343,7.343,0,0,1,.054.825.683.683,0,0,1-.174.513,1.172,1.172,0,0,1-.636.194,1,1,0,0,1-.7-.209,3.618,3.618,0,0,1-.592-2.14c-.013-.081-.022-.168-.035-.254-.022-.173-.045-.352-.068-.537-.092-.669-.18-1.35-.264-2.06s-.128-1.308-.14-1.809a2.454,2.454,0,0,1,.17-1.115.807.807,0,0,1,.483-.4A1.924,1.924,0,0,1,414.022,331.052Zm1.949,4.764a1.179,1.179,0,0,0,.309-.695A4.557,4.557,0,0,0,416.3,334a2.427,2.427,0,0,0-.284-.966c-.161-.225-.334-.325-.518-.3a.525.525,0,0,0-.418.337,2.99,2.99,0,0,0-.094,1.423,2.162,2.162,0,0,0,.514,1.313A.337.337,0,0,0,415.971,335.816Z" transform="translate(-399.667 -326.675)" fill="#232474"/>
      <path id="Path_48" data-name="Path 48" d="M461.717,327.075a5.013,5.013,0,0,1,1.529,2.724,15.987,15.987,0,0,1,.382,2.014c.087.681.147,1.26.186,1.735a7.827,7.827,0,0,1,.036.949.667.667,0,0,1-.146.429.941.941,0,0,1-.367.262,1.032,1.032,0,0,1-.476.092.657.657,0,0,1-.458-.208,1.952,1.952,0,0,1-.413-.79c-.058-.182-.112-.387-.169-.621-.045.016-.091.026-.136.042-.285.073-.594.143-.921.209s-.637.118-.92.156q-.046.539-.11.887a.989.989,0,0,1-.2.51.479.479,0,0,1-.273.137.473.473,0,0,1-.2.013c-.071-.011-.135-.075-.2-.18a1.756,1.756,0,0,1-.157-.558,12.13,12.13,0,0,1-.091-1.726,18.951,18.951,0,0,1,.128-2.237,7.568,7.568,0,0,1,1.079-3.5A1.29,1.29,0,0,1,461.717,327.075Zm-.2,5.06c0-.029-.011-.057-.015-.093q-.087-.473-.17-.877a4.278,4.278,0,0,0-.541-1.655c-.1-.12-.19-.158-.285-.113s-.181.186-.256.439a12.32,12.32,0,0,0-.289,2.4c-.006.123-.012.246-.019.358C460.443,332.422,460.966,332.267,461.514,332.135Z" transform="translate(-433.188 -323.701)" fill="#232474"/>
      <path id="Path_49" data-name="Path 49" d="M483.005,323.952a2.42,2.42,0,0,1,.619.93c.052.117.109.229.173.351q.375.728.788,1.486c.282.511.521.945.731,1.316s.33.588.371.661c-.01-.1-.025-.208-.041-.317a30.668,30.668,0,0,1-.338-3.409,2.37,2.37,0,0,1,.172-1.091.822.822,0,0,1,.481-.419,1.934,1.934,0,0,1,.677-.122.808.808,0,0,1,.587.208,3.733,3.733,0,0,1,.365,2.15c0,.017,0,.035,0,.052.028.669.062,1.407.1,2.221s.084,1.51.128,2.108c.009.1.024.2.034.3a3,3,0,0,1,0,1.039c-.057.326-.3.524-.727.6a1.259,1.259,0,0,1-.955-.343,3.783,3.783,0,0,1-.713-.81A32.964,32.964,0,0,1,483.5,327.7c.033,1.095.087,2.048.175,2.857.012.127.023.249.035.371a6.315,6.315,0,0,1,.056.842.631.631,0,0,1-.175.5,1.174,1.174,0,0,1-.636.194.994.994,0,0,1-.7-.209,3.623,3.623,0,0,1-.593-2.14c-.013-.081-.022-.167-.035-.254-.022-.173-.044-.352-.068-.543-.091-.663-.179-1.35-.263-2.054s-.128-1.308-.141-1.815a2.447,2.447,0,0,1,.171-1.109.806.806,0,0,1,.483-.4C482.36,323.738,482.763,323.741,483.005,323.952Z" transform="translate(-449.645 -321.178)" fill="#232474"/>
      <path id="Path_50" data-name="Path 50" d="M511.434,322.392a.845.845,0,0,1,.586.208,3.747,3.747,0,0,1,.366,2.156c0,.017,0,.035,0,.052q.042,1,.1,2.216c.042.814.084,1.517.134,2.113.014.215.032.4.053.561a5.483,5.483,0,0,1,.043.767.483.483,0,0,1-.181.379,1.163,1.163,0,0,1-.636.194.99.99,0,0,1-.7-.208,3.615,3.615,0,0,1-.592-2.14c-.013-.081-.022-.168-.036-.254-.022-.173-.045-.352-.068-.542-.092-.663-.18-1.35-.263-2.055s-.128-1.308-.14-1.809a2.442,2.442,0,0,1,.17-1.114.8.8,0,0,1,.483-.4A1.925,1.925,0,0,1,511.434,322.392Z" transform="translate(-470.785 -320.489)" fill="#232474"/>
      <path id="Path_51" data-name="Path 51" d="M525.469,319.968a2.421,2.421,0,0,1,.619.929c.052.118.109.229.173.352q.375.728.787,1.486c.282.511.521.944.731,1.315s.329.589.371.661c-.01-.1-.025-.208-.041-.317a30.665,30.665,0,0,1-.338-3.409,2.366,2.366,0,0,1,.172-1.091.821.821,0,0,1,.481-.419,1.923,1.923,0,0,1,.677-.122.806.806,0,0,1,.586.208,3.732,3.732,0,0,1,.365,2.151l0,.052c.028.669.062,1.408.1,2.222s.083,1.511.128,2.108c.009.1.024.2.034.3a2.99,2.99,0,0,1,0,1.039c-.057.326-.3.525-.726.6a1.257,1.257,0,0,1-.955-.343,3.769,3.769,0,0,1-.713-.809,32.846,32.846,0,0,1-1.973-3.162c.033,1.1.087,2.048.175,2.857.012.128.023.249.035.371a6.327,6.327,0,0,1,.056.842.631.631,0,0,1-.175.5,1.164,1.164,0,0,1-.636.194.991.991,0,0,1-.7-.209,3.626,3.626,0,0,1-.592-2.141c-.013-.081-.022-.167-.036-.253-.022-.174-.044-.352-.068-.543-.092-.663-.18-1.35-.263-2.055s-.129-1.308-.141-1.815a2.441,2.441,0,0,1,.171-1.108.8.8,0,0,1,.483-.4C524.824,319.753,525.228,319.757,525.469,319.968Z" transform="translate(-480.647 -318.269)" fill="#232474"/>
      <path id="Path_52" data-name="Path 52" d="M553.7,317.922a1.323,1.323,0,0,1,.524.05,2.723,2.723,0,0,1,.709-.165,2.664,2.664,0,0,1,2.6,1.2,6.686,6.686,0,0,1,.954,2.761,6.959,6.959,0,0,1-.134,2.682,2.382,2.382,0,0,1-1.769,1.884,2.733,2.733,0,0,1-1.426-.071.384.384,0,0,1-.069.071,1.154,1.154,0,0,1-.61.227,1.007,1.007,0,0,1-.723-.172,3.848,3.848,0,0,1-.666-2.239c-.012-.069-.019-.138-.032-.213-.026-.155-.047-.311-.074-.478-.1-.674-.2-1.365-.3-2.081s-.148-1.33-.166-1.836a2.3,2.3,0,0,1,.153-1.1.808.808,0,0,1,.483-.4A2.439,2.439,0,0,1,553.7,317.922Zm2.551,7.08a2.969,2.969,0,0,0,.362-1.436,7.923,7.923,0,0,0-.048-1.322,5.41,5.41,0,0,0-.208-.845,4.346,4.346,0,0,0-.465-1.037.769.769,0,0,0-.685-.45c-.3.081-.472.453-.5,1.117a12.644,12.644,0,0,0,.085,2.153c.09.774.169,1.368.243,1.776.006.058.015.1.019.144C555.631,325.41,556.03,325.373,556.252,325Z" transform="translate(-501.752 -317.138)" fill="#232474"/>
      <path id="Path_53" data-name="Path 53" d="M583.71,315.624a5.012,5.012,0,0,1,1.529,2.725,15.884,15.884,0,0,1,.382,2.014c.088.681.148,1.259.186,1.735a7.825,7.825,0,0,1,.037.948.67.67,0,0,1-.146.429.952.952,0,0,1-.367.262,1.029,1.029,0,0,1-.476.091.657.657,0,0,1-.458-.208,1.961,1.961,0,0,1-.413-.791c-.058-.181-.112-.387-.169-.621-.045.016-.091.026-.136.042-.285.073-.594.143-.921.209s-.637.118-.92.156q-.045.538-.109.887a1,1,0,0,1-.2.51.644.644,0,0,1-.477.15c-.071-.011-.135-.076-.2-.18a1.727,1.727,0,0,1-.157-.557,12.023,12.023,0,0,1-.092-1.726,18.892,18.892,0,0,1,.128-2.237,7.561,7.561,0,0,1,1.079-3.5A1.29,1.29,0,0,1,583.71,315.624Zm-.2,5.06c0-.029-.011-.058-.014-.092q-.088-.474-.17-.878a4.277,4.277,0,0,0-.541-1.655c-.1-.119-.19-.157-.286-.113s-.181.187-.256.439a12.291,12.291,0,0,0-.289,2.4c-.006.123-.012.247-.019.358C582.436,320.971,582.959,320.817,583.507,320.684Z" transform="translate(-522.253 -315.341)" fill="#232474"/>
    </g>
    <g id="Group_45" data-name="Group 45" transform="translate(0 0)">
      <g id="Group_40" data-name="Group 40">
        <path id="Path_54" data-name="Path 54" d="M253.2,276.945a1.547,1.547,0,0,1,.8,1.9.646.646,0,0,0,0,.188c-.012.582.063.629.563.358a.937.937,0,0,0,.13-.077,1.574,1.574,0,0,1,2.195-.057.069.069,0,0,0,.035.015c.141.014.328.086.411.023s.06-.263.083-.4a.109.109,0,0,0-.006-.038,2.335,2.335,0,0,1,.351-2.3c.212-.223.05-.4-.214-.445a1.92,1.92,0,0,1-1.465-1.112,3.048,3.048,0,0,0-.294-.44c-.225-.309-.395-.3-.592.031-.217.369-.407.754-.629,1.12a.585.585,0,0,1-.3.245c-.264.077-.548.091-.813.167a5.949,5.949,0,0,0-.662.273A2.112,2.112,0,0,0,253.2,276.945Z" transform="translate(-250.536 -220.832)" fill="#232474"/>
        <path id="Path_55" data-name="Path 55" d="M245.074,296.478c.336.173.681.328,1.022.491,1,.478,1.994.971,3,1.429a1.036,1.036,0,0,0,1.49-.987,1.048,1.048,0,0,0-.572-.836c-.348-.177-.7-.343-1.055-.51-1.012-.482-2.018-.979-3.041-1.437a1.019,1.019,0,1,0-.848,1.851Z" transform="translate(-244.433 -235.571)" fill="#232474"/>
        <path id="Path_56" data-name="Path 56" d="M277.384,274.016a1.06,1.06,0,0,0,1.048-1.147c.007-.492,0-.984,0-1.477,0-.529.015-1.059,0-1.587a1.042,1.042,0,1,0-2.081.017c-.016,1.022-.014,2.045,0,3.067A1.062,1.062,0,0,0,277.384,274.016Z" transform="translate(-267.725 -216.735)" fill="#232474"/>
        <path id="Path_57" data-name="Path 57" d="M366.357,124.9c-1.668-.327-3.344-.616-5.018-.917-.327-.059-.658-.1-.986-.147a.649.649,0,0,1,.3-.2,23.138,23.138,0,0,0,5.518-2.708,5.262,5.262,0,0,0,1.1-1.024,1.32,1.32,0,0,0-.681-2.15,2.116,2.116,0,0,0-.739-.138c-1.221.058-2.451.069-3.658.237-2.5.347-4.98.782-7.469,1.185-.438.071-.873.162-1.286.239.049-.715.127-1.368.129-2.021a17.713,17.713,0,0,0-.116-1.965,10.26,10.26,0,0,0-.814-3.4c-.669-1.392-1.954-1.491-2.819-.208a15.829,15.829,0,0,0-.8,1.413c-.534,1-1.027,2.025-1.59,3.009a3.543,3.543,0,0,1-3.318,1.809c-.467,0-.936,0-1.4.034-1.887.158-3.773.334-5.659.5l-3.021.264c-.1-1.31-.208-2.62-.306-3.931-.214-2.858-.417-5.717-.632-8.575-.138-1.839-.289-3.676-.43-5.514q-.391-5.1-.777-10.2-.3-3.967-.59-7.934c-.108-1.461-.22-2.921-.321-4.382a1.132,1.132,0,0,0-1.155-1.118c-.869-.066-1.739-.111-2.609-.164q-2.307-.142-4.614-.283-3.971-.24-7.943-.47c-2.6-.148-2.381,1.528-2.381,1.528.285,2.724.563,5.448.85,8.172.217,2.058.448,4.115.664,6.174q.505,4.82,1,9.641c.295,2.9.613,5.8.858,8.7.279,3.3.5,6.609.736,9.914h0q-2.49.223-4.979.449-3.282.293-6.564.581l-.838.076q-.044-.58-.086-1.159c-.139-1.835-.294-3.67-.433-5.505-.215-2.853-.42-5.707-.636-8.561-.139-1.835-.292-3.67-.434-5.505q-.394-5.09-.783-10.181-.3-3.96-.595-7.921c-.109-1.458-.222-2.916-.323-4.375a1.135,1.135,0,0,0-1.163-1.116c-.875-.066-1.752-.111-2.629-.164q-2.324-.141-4.648-.282-4-.24-8-.47c-.087-.005-.17-.008-.251-.009-1.415-.022-1.9.538-2.07.989l-.009.025,0,.008a1.325,1.325,0,0,0-.07.405.844.844,0,0,0,0,.11c.285,2.724.563,5.448.85,8.172.217,2.058.448,4.115.664,6.174q.505,4.82,1,9.641c.295,2.9.613,5.8.858,8.7.291,3.447.517,6.9.768,10.351q.082,1.12.161,2.24l-6.87.6q-2.452.215-4.9.428c-1.081.1-2.164.183-3.243.3-.018,0-.033.008-.05.01-1.136.1-2.273.2-3.409.3a1.131,1.131,0,0,0-1.1,1.171c-.053.87-.085,1.741-.125,2.611q-.107,2.309-.214,4.618c-.1,2.284-.407,6.363-.529,8.887-.417.013-.835.027-1.252.036a7.345,7.345,0,0,1-5.641-2.046c-.771-.779-1.451-1.649-2.166-2.482-.46-.536-.889-1.1-1.371-1.617a1.3,1.3,0,0,0-1.454-.38,1.276,1.276,0,0,0-.794,1.191,2.613,2.613,0,0,0-.022.567c.1.928.2,1.856.335,2.78.1.7.243,1.4.365,2.086-.314.072-.584.128-.85.2-.866.219-1.723.484-2.6.652-.9.173-1.834.2-2.73.387a3.183,3.183,0,0,0-2.4,3.641,2.691,2.691,0,0,1-.125,1.583,2.922,2.922,0,0,0,.058,2.46,2.408,2.408,0,0,1,.318,1.21,3.921,3.921,0,0,0,2.056,3.742.622.622,0,0,1,.189.469,2.983,2.983,0,0,0,2.133,3.1,12.053,12.053,0,0,0,3.6.628c.729.051,1.459.093,2.188.139h4.248c.162-.017.323-.041.486-.05,2.332-.131,4.666-.24,7-.4,2.91-.193,5.818-.419,8.727-.638,1.838-.138,3.676-.292,5.514-.43q3.578-.268,7.157-.53.1,1.28.2,2.56.208,2.711.413,5.422.182,2.388.364,4.776.3,3.966.59,7.934c.108,1.461.22,2.921.321,4.382a1.131,1.131,0,0,0,1.154,1.118c.338.026.676.047,1.013.068l1.6.1q2.307.142,4.614.283,3.8.23,7.6.45l.338.02a3.014,3.014,0,0,0,1.721-.3,1.3,1.3,0,0,0,.66-1.227c-.285-2.724-.563-5.449-.85-8.172-.217-2.058-.448-4.115-.664-6.174q-.392-3.733-.773-7.468-.164-2.56-.332-5.119c1.684-.128,3.368-.267,5.053-.394l7.2-.537c.124,1.614.255,3.228.378,4.842q.392,5.1.777,10.2.3,3.967.59,7.934c.108,1.461.22,2.921.321,4.382a1.131,1.131,0,0,0,1.154,1.118c.869.066,1.739.111,2.61.164q2.307.142,4.614.283,3.971.24,7.943.47c2.6.148,2.381-1.528,2.381-1.528-.285-2.724-.563-5.449-.85-8.172-.217-2.058-.448-4.115-.664-6.174q-.506-4.82-1-9.641c-.177-1.742-.361-3.483-.534-5.226l.08-.006v-.016c2.437-.176,5.457-.39,7.218-.521,1.461-.108,2.921-.22,4.382-.321a1.131,1.131,0,0,0,1.118-1.154c.066-.869.111-1.739.164-2.609q.142-2.307.283-4.614c.16-2.647.325-5.294.47-7.943.021-.373.127-.5.523-.535,1.283-.1,2.561-.265,3.841-.4.979-.106,1.959-.2,2.935-.323a.919.919,0,0,0,.8-.753.962.962,0,0,0-.367-1.044,4.471,4.471,0,0,0-.516-.315q-.748-.432-1.5-.86c0-.035.008-.07.013-.105.123-.008.247-.019.371-.023,2.221-.085,4.443-.146,6.662-.268a9.573,9.573,0,0,0,1.922-.379,1.183,1.183,0,0,0,.917-1.132,1.164,1.164,0,0,0-.817-1.167c-.958-.344-1.94-.623-2.917-.912-.45-.133-.912-.225-1.368-.336l0-.1c.439-.069.88-.13,1.318-.208,1.439-.253,2.88-.5,4.313-.777a1.876,1.876,0,0,0,1.483-1.1v-.607A2.092,2.092,0,0,0,366.357,124.9Zm-50.23-30.329q-.456-4.311-.916-8.622-.381-3.6-.756-7.192c-.018-.171,0-.346,0-.568l4.78.3,7.336.454c.681.042,1.361.094,2.043.116.274.009.37.112.388.378q.238,3.382.493,6.763c.129,1.725.267,3.45.4,5.175q.336,4.476.667,8.953c.13,1.725.269,3.45.4,5.175q.334,4.457.663,8.915c.113,1.493.234,2.987.35,4.48l-1.251.109q-2.848.251-5.7.508l-6.593.584q-.02-.26-.039-.52c-.2-2.733-.38-5.468-.606-8.2s-.487-5.482-.759-8.22C316.741,100.295,316.429,97.434,316.126,94.572Zm-13.8,88.377-7.336-.454c-.681-.042-1.362-.093-2.043-.116-.252-.008-.35-.1-.379-.323q-.1-1.274-.192-2.548-.155-2.135-.311-4.269c-.129-1.725-.267-3.45-.4-5.175q-.336-4.476-.667-8.953-.106-1.4-.217-2.808c0-.092-.007-.184-.011-.276l1.336-.1c1.788-.134,3.575-.284,5.363-.418q3.468-.26,6.936-.512c.042.426.081.853.123,1.279q.215,2.168.446,4.334.056,1.26.127,2.519c.166,2.894.4,5.785.61,8.677q.3,4.13.611,8.26.042.568.083,1.135Zm45.687-41.01q-.227,3.668-.454,7.336c-.042.681-.093,1.361-.116,2.043-.009.273-.112.37-.378.389q-3.382.237-6.763.493c-.762.057-2.411.174-3.859.279-.805.058-1.544.112-2.037.149.062.685.122,1.371.186,2.056q.169,1.8.346,3.593c.284,2.863.6,5.724.9,8.586s.611,5.748.916,8.622q.381,3.6.756,7.192c.018.171,0,.346,0,.568l-4.78-.3-7.336-.454c-.681-.042-1.361-.093-2.043-.116-.273-.009-.37-.112-.388-.378q-.237-3.382-.493-6.763c-.129-1.725-.266-3.45-.4-5.175q-.336-4.476-.667-8.953c-.13-1.725-.269-3.45-.4-5.175l-.014-.185H321c-.01-.194-.018-.388-.029-.582-.029-.5-.061-1-.093-1.5l-.037,0v-.007l-2.077.155-6.678.5c-1.8.136-3.6.287-5.4.422l-.162.012-.262.019-1.816.134-.232.017q-3.108.228-6.217.458c-1.712.128-3.424.266-5.137.395l-2.182.163-.072.005-1.98.147-.095.007q-2.312.171-4.624.344c-1.725.13-3.45.271-5.175.4-2.972.223-5.944.437-8.915.661-1.8.136-3.6.348-5.4.41-3.1.107-6.213.14-9.32.17a16.186,16.186,0,0,1-4.208-.436,3.718,3.718,0,0,1-.768-.31.7.7,0,0,1-.38-.723c.512.069,1.006.154,1.5.2,1.106.1,2.212.212,3.321.265a1,1,0,0,0,.978-1.378.906.906,0,0,0-.779-.635c-.765-.085-1.537-.117-2.3-.222-1.134-.156-2.271-.313-3.388-.555a1.7,1.7,0,0,1-1.538-1.5.834.834,0,0,1,.246,0,33.282,33.282,0,0,0,5.247,1.095c.61.1,1.223.182,1.834.27a1.027,1.027,0,1,0,.351-2.023c-.882-.152-1.773-.255-2.655-.4a19.9,19.9,0,0,1-5.014-1.223.916.916,0,0,1-.642-1.165c.046-.183.122-.251.322-.169a21.419,21.419,0,0,0,5.455,1.166c.413.052.825.128,1.239.144a1,1,0,0,0,1.052-.884.953.953,0,0,0-.778-1.122c-.7-.141-1.422-.2-2.132-.306a18.535,18.535,0,0,1-3.91-.841,3.432,3.432,0,0,1-.345-.153c-.364-.188-.676-.426-.642-.891a1.031,1.031,0,0,1,.722-.973,4.49,4.49,0,0,1,1.216-.244,17.085,17.085,0,0,0,4.286-.866c.229-.067.455-.144.728-.23.063.3.125.586.2.946l-1.754.139c-.541.043-1.085.064-1.622.136a1,1,0,0,0-.9,1.079,1.007,1.007,0,0,0,1.076.945c1.512-.087,3.025-.185,4.534-.317a1.034,1.034,0,0,0,.917-1.338c-.407-2.051-.8-4.1-1.2-6.158a2.126,2.126,0,0,1,0-.279c.216.25.379.432.535.619a11.67,11.67,0,0,0,3.532,3.106,9.272,9.272,0,0,0,4.435,1.1q3.73-.076,7.456-.288c2.9-.165,5.795-.4,8.692-.606q3.818-.275,7.636-.559l.638-.047,1.426-.1q3.367-.245,6.735-.49,3.338-.245,6.675-.493l.278-.021,1.769-.131.323-.024,1.421-.105c2.733-.2,5.468-.38,8.2-.606.873-.072,1.746-.153,2.618-.231l.108-.01h0c.682-.061,1.364-.122,2.046-.186q1.724-.162,3.447-.332c2.864-.283,5.724-.6,8.586-.9l1.523-.162,2.072-.22h0l5.027-.534q3.6-.381,7.192-.756c.171-.018.346,0,.568,0C348.207,138.79,348.109,140.365,348.012,141.94ZM302.07,123.634l2.085-.186.376-.034q3.923-.35,7.846-.7c1.385-.125,2.769-.256,4.153-.38h0l.524-.048,1.526-.131q2.916-.251,5.831-.5c1.9-.166,3.8-.343,5.7-.511l2.017-.179,2.069-.183q2.107-.185,4.214-.362c1.95-.162,3.9-.331,5.854-.431a5.665,5.665,0,0,0,4.949-2.85c.578-.99,1.077-2.025,1.614-3.039.066-.124.144-.241.27-.45a16.4,16.4,0,0,1,.42,4.014,3.62,3.62,0,0,1-.863,2.441.934.934,0,0,0-.086,1.223,1.079,1.079,0,0,0,1.166.426c1.966-.387,3.924-.817,5.9-1.15,2-.338,4.019-.583,6.031-.865a3.794,3.794,0,0,1,.472,0,1.009,1.009,0,0,1-.128.145c-.1.06-.2.116-.294.17a30.618,30.618,0,0,1-8.055,2.872c-.773.177-1.552.334-2.318.539a.978.978,0,0,0-.74,1.091,1.007,1.007,0,0,0,.915.913c2.217.16,4.436.3,6.652.468.805.063,1.6.206,2.407.312-.035.109-.072.146-.113.151-1.614.209-3.228.421-4.843.621-1.24.154-2.483.28-3.72.449a1.212,1.212,0,0,0-.659.323c-.628.641-.249,1.559.725,1.756,1.593.322,3.191.621,4.786.936.372.073.74.169,1.11.254,0,.039,0,.078-.005.117a3.032,3.032,0,0,1-.34.04q-3.734.021-7.468.036a1.038,1.038,0,0,0-.558,1.975c.722.414,1.45.819,2.173,1.231.122.069.235.155.441.293-1.839.2-3.556.38-5.274.56-2.724.285-5.448.563-8.172.85-1.762.186-3.523.38-5.284.568h0l-.889.1-1.184.122q-4.228.442-8.457.875c-1.7.173-3.4.352-5.1.521q-1.022.1-2.045.2.04.535.078,1.069-.039-.534-.078-1.069c-.521.048-1.042.1-1.564.141-3.447.291-6.9.517-10.351.767l-.435.031-2.092.15q-3.214.229-6.427.461c-2.33.17-4.659.355-6.989.528l-.269.02-2.064.151q-4.312.318-8.623.63c-2.595.186-5.189.38-7.786.534-1.1.065-2.2.126-3.3.178.094-1.534.327-4.314.381-5.466q.172-3.671.345-7.342c.032-.681.073-1.363.085-2.044,0-.273.106-.371.372-.394q3.378-.288,6.755-.594,1.861-.167,3.722-.341h0q2.805-.242,5.61-.485l1.293-.116,2.071-.186q-.077-1.033-.154-2.067-.122-1.633-.244-3.267c-.2-2.728-.383-5.458-.611-8.185s-.491-5.472-.764-8.206c-.286-2.859-.6-5.715-.9-8.571s-.616-5.738-.923-8.607q-.384-3.59-.762-7.18c-.018-.17,0-.343,0-.563l4.764.295,7.337.454c.681.042,1.361.094,2.043.116.273.009.37.112.388.378q.238,3.382.493,6.763c.129,1.725.266,3.45.4,5.175q.336,4.476.667,8.953c.13,1.725.269,3.45.4,5.175q.334,4.457.663,8.915Z" transform="translate(-244.684 -76.136)" fill="#232474"/>
        <path id="Path_58" data-name="Path 58" d="M510.131,240.68q.051.7.1,1.4-.05-.7-.1-1.4c-.005-.076-.011-.151-.016-.227Z" transform="translate(-438.402 -196.1)" fill="#232474"/>
      </g>
      <g id="Group_44" data-name="Group 44" transform="translate(107.943 62.911)">
        <g id="Group_43" data-name="Group 43">
          <g id="Group_41" data-name="Group 41" transform="translate(0 1.599)">
            <path id="Path_59" data-name="Path 59" d="M656.847,322.748a.141.141,0,0,0-.021.06c.063-.145.108-.252.138-.328l0,.006a.092.092,0,0,0-.046.047.317.317,0,0,0-.026.078A.176.176,0,0,0,656.847,322.748Z" transform="translate(-653.456 -320.496)" fill="#232474"/>
            <path id="Path_60" data-name="Path 60" d="M651.691,320.263a15.081,15.081,0,0,0-.533-2.212,4.594,4.594,0,0,0-1.76-2.552,2.15,2.15,0,0,0-3.153.916,2.833,2.833,0,0,0-.282,1.31,3.273,3.273,0,0,0,.089.7c.044.184.14.3-.008.447-.168.172-.445.3-.631.469a3.454,3.454,0,0,0-.923,1.3,2.148,2.148,0,0,0,.322,2.142,2.335,2.335,0,0,0,1.812.7,5.171,5.171,0,0,0,2-.337,8.573,8.573,0,0,0,1.855-.993c.6-.413,1.357-.933,1.231-1.766C651.7,320.345,651.7,320.3,651.691,320.263Z" transform="translate(-644.34 -315.129)" fill="#232474"/>
          </g>
          <path id="Path_61" data-name="Path 61" d="M675.411,310.542a1.4,1.4,0,0,0-.155-.532,1.482,1.482,0,0,0-.364-.476,1.435,1.435,0,0,0-.659-.3,2.184,2.184,0,0,0-.6,0,2.971,2.971,0,0,0-.583.105,4.053,4.053,0,0,0-.609.2,5.574,5.574,0,0,0-.5.31,3.175,3.175,0,0,0-.431.376,1.684,1.684,0,0,0-.333.429.92.92,0,0,0-.16.4c-.019.023.086.138.231.272a1.254,1.254,0,0,0-.131.4,1.186,1.186,0,0,0,.036.667,1.113,1.113,0,0,0,.707.6,1.679,1.679,0,0,0,.382.015,2.419,2.419,0,0,0,.434,0,3.029,3.029,0,0,0,.477-.036c.164-.04.326-.08.487-.129a2.319,2.319,0,0,0,.482-.215,2.067,2.067,0,0,0,.461-.287,2.021,2.021,0,0,0,.388-.392,2.957,2.957,0,0,0,.41-.814A1.535,1.535,0,0,0,675.411,310.542Zm-1.418.184-.009,0v0Z" transform="translate(-663.814 -309.207)" fill="#232474"/>
          <path id="Path_62" data-name="Path 62" d="M683.218,328.208a3.965,3.965,0,0,0-.272-.619,1.809,1.809,0,0,0-.516-.561,1.944,1.944,0,0,0-.755-.41,3.933,3.933,0,0,0-.79-.16c-.256,0-.513-.013-.769.008a4.068,4.068,0,0,0-.739.131,3.134,3.134,0,0,0-.631.208,2.417,2.417,0,0,0-.471.25c-.029.01-.014.117.026.271l-.022.018a1.414,1.414,0,0,0-.3,1.29,1.368,1.368,0,0,0,.262.586,1.809,1.809,0,0,0,.534.475,4.162,4.162,0,0,1,.442.195,4.64,4.64,0,0,0,.577.2,2.861,2.861,0,0,0,.63.155,4.271,4.271,0,0,0,.684.048c.194-.024.386-.043.577-.08a3.645,3.645,0,0,0,.59-.215,1.622,1.622,0,0,0,.652-.463A1.576,1.576,0,0,0,683.218,328.208Z" transform="translate(-668.86 -321.8)" fill="#232474"/>
          <g id="Group_42" data-name="Group 42" transform="translate(7.46 9.041)">
            <path id="Path_63" data-name="Path 63" d="M676.554,344.763a3.868,3.868,0,0,0-.351-.645,3.115,3.115,0,0,0-.519-.565,3.775,3.775,0,0,0-.61-.428,3.717,3.717,0,0,0-.636-.277c-.173-.029-.337-.1-.514-.115a1.8,1.8,0,0,0-.38-.029c-.04-.011-.125.208-.207.478a1.251,1.251,0,0,0-1.356,1.37,1.613,1.613,0,0,0,.218.845,5.858,5.858,0,0,0,.349.559c.142.179.265.366.411.542a3.092,3.092,0,0,0,1.075.841,2.411,2.411,0,0,0,.657.178,2.452,2.452,0,0,0,.721-.064,1.674,1.674,0,0,0,.579-.32,1.649,1.649,0,0,0,.435-.491,2.4,2.4,0,0,0,.3-1.141A2.551,2.551,0,0,0,676.554,344.763Zm-2.567-.25,0,0v0Z" transform="translate(-671.978 -342.701)" fill="#232474"/>
            <path id="Path_64" data-name="Path 64" d="M682.946,353.469l-.008.017.012,0v-.006C682.948,353.479,682.947,353.474,682.946,353.469Z" transform="translate(-679.98 -350.563)" fill="#232474"/>
          </g>
          <path id="Path_65" data-name="Path 65" d="M657.5,349.882a.759.759,0,0,0-.023-.191c-.077-.193-.489-.133-.625-.157a1.118,1.118,0,0,0-.95,1.042,2.6,2.6,0,0,0,.016.393c.009.092.007.18.015.273-.012.128.022.253.022.38a3.122,3.122,0,0,0,.086.481,3.749,3.749,0,0,0,.166.49,2.369,2.369,0,0,0,.275.517,2.123,2.123,0,0,0,.408.491,2.557,2.557,0,0,0,.474.374,1.706,1.706,0,0,0,.775.265,1.592,1.592,0,0,0,.8-.185,1.67,1.67,0,0,0,.58-.566,2.211,2.211,0,0,0,.223-1.222,3.22,3.22,0,0,0-.242-.722,5.881,5.881,0,0,0-.314-.626,3.782,3.782,0,0,0-.41-.623,3.249,3.249,0,0,0-.431-.453,1.19,1.19,0,0,0-.412-.263" transform="translate(-652.78 -338.649)" fill="#232474"/>
        </g>
      </g>
    </g>
  </g>
</svg>
