<svg xmlns="http://www.w3.org/2000/svg" width="22.724" height="21.018" viewBox="0 0 22.724 21.018">
  <g id="noun_Home_3738537" transform="translate(-10.793 -13.74)">
    <path id="Path_93" data-name="Path 93" d="M31.013,24.176a.58.58,0,0,1-.33-.1l-8.526-5.938-8.524,5.938a.58.58,0,0,1-.722-.049l-1.927-1.765a.58.58,0,0,1,.061-.907l10.781-7.506a.58.58,0,0,1,.664,0L33.268,21.35a.58.58,0,0,1,.061.9L31.4,24.02A.58.58,0,0,1,31.013,24.176ZM12.3,21.892l1.052.962,8.474-5.9a.58.58,0,0,1,.664,0l8.471,5.9,1.046-.962-9.854-6.866Z" transform="translate(0 0)" fill="#232474"/>
    <path id="Path_94" data-name="Path 94" d="M37.335,55.6H21.83a.58.58,0,0,1-.58-.58V43.673a.58.58,0,0,1,1.159,0v10.77H36.755V43.67a.58.58,0,1,1,1.159,0V55.022A.58.58,0,0,1,37.335,55.6Z" transform="translate(-7.426 -20.844)" fill="#232474"/>
    <path id="Path_95" data-name="Path 95" d="M35.043,62.9H31.29a.58.58,0,0,1-.58-.58V53.94a.58.58,0,0,1,.58-.58h3.753a.58.58,0,0,1,.58.58v8.376A.58.58,0,0,1,35.043,62.9Zm-3.174-1.159h2.594V54.519H31.869Z" transform="translate(-14.145 -28.138)" fill="#232474"/>
    <path id="Path_96" data-name="Path 96" d="M55.778,58.867H51.66a.58.58,0,0,1-.58-.58V53.94a.58.58,0,0,1,.58-.58h4.118a.58.58,0,0,1,.58.58v4.347A.58.58,0,0,1,55.778,58.867Zm-3.539-1.159H55.2V54.519H52.239Z" transform="translate(-28.611 -28.138)" fill="#232474"/>
    <path id="Path_97" data-name="Path 97" d="M26.83,19.662a.58.58,0,0,1-.58-.58V14.84a.58.58,0,0,1,.58-.58h3.7a.58.58,0,0,1,.58.58V16.5a.58.58,0,0,1-.246.475l-3.7,2.579A.58.58,0,0,1,26.83,19.662Zm.58-4.243v2.553l2.536-1.759v-.794Z" transform="translate(-10.977 -0.369)" fill="#232474"/>
  </g>
</svg>
