<svg xmlns="http://www.w3.org/2000/svg" width="48.484" height="37.339" viewBox="0 0 48.484 37.339">
  <g id="Group_8" data-name="Group 8" transform="translate(-2511.581 -1846.888)">
    <g id="Group_6" data-name="Group 6" transform="translate(2511.581 1846.888)">
      <path id="Path_17" data-name="Path 17" d="M2522.137,1880.984a6.275,6.275,0,0,0,1.329-.135c2.51-.549,4.663-2.589,6.063-5.747,2.082-4.7,2.078-10.743-.01-14.38a4.84,4.84,0,0,1-.726-4.085,4.705,4.705,0,0,1,2.564-2.4l-.554-1.573a6.316,6.316,0,0,0-3.573,3.392,6.392,6.392,0,0,0,.843,5.5c1.814,3.16,1.784,8.695-.069,12.874-1.179,2.659-2.917,4.361-4.895,4.793a6.865,6.865,0,0,1-5.586-1.714c-2.115-1.775-4.57-5.554-4.248-13.475.449-11.049,11.656-14.1,12.133-14.226l.048-.014c6.807-2.211,12.421-1.483,16.687,2.163a16.02,16.02,0,0,1,4.4,6.136l1.575-.548c-.052-.151-5.475-15.074-23.157-9.343-.7.195-12.862,3.76-13.35,15.765-.349,8.6,2.44,12.805,4.842,14.82A8.928,8.928,0,0,0,2522.137,1880.984Z" transform="translate(-2511.581 -1846.888)" fill="#333"/>
    </g>
    <g id="Group_7" data-name="Group 7" transform="translate(2532.4 1857.573)">
      <path id="Path_18" data-name="Path 18" d="M2711.784,1976.062l1.473-.782a2.462,2.462,0,0,1,.246-2.551c1.72-2.873,6.934-5.348,10-5.36a31.53,31.53,0,0,1,4,.316,18.755,18.755,0,0,0,6.138.084c5.148-1.1,5.458-7.308,5.353-9.924a2.23,2.23,0,0,0-1.359-1.953l-8.191-3.454a5.315,5.315,0,0,1-2.372-3.031l-.8.241-.791.264h0a6.965,6.965,0,0,0,3.166,3.992.832.832,0,0,0,.1.048l8.242,3.475a.555.555,0,0,1,.341.484c.088,2.194-.128,7.388-4.036,8.226a17.549,17.549,0,0,1-5.59-.108,35.466,35.466,0,0,0-4.2-.328c-3.507.013-9.383,2.769-11.42,6.171A4.1,4.1,0,0,0,2711.784,1976.062Z" transform="translate(-2711.337 -1949.408)" fill="#333"/>
    </g>
  </g>
</svg>
