<svg xmlns="http://www.w3.org/2000/svg" width="38.407" height="38.745" viewBox="0 0 38.407 38.745">
  <g id="Group_21" data-name="Group 21" transform="translate(-1768.993 -240.23)">
    <g id="Group_15" data-name="Group 15" transform="translate(1779.302 247.482)">
      <g id="Group_9" data-name="Group 9" transform="translate(2.528 5.983)">
        <path id="Path_19" data-name="Path 19" d="M1926.4,409.8a1.794,1.794,0,0,1-1.865-1.309c-.841-2.231.883-3.557,2.269-4.623a8.327,8.327,0,0,0,1.455-1.637c.719-.962,1.4-1.871,2.421-1.871s1.7.909,2.421,1.871a8.314,8.314,0,0,0,1.456,1.637c1.385,1.066,3.109,2.392,2.268,4.623-.609,1.616-1.921,1.38-3.311,1.13a13.313,13.313,0,0,0-5.668,0A8.468,8.468,0,0,1,1926.4,409.8Zm4.281-8.117c-.361,0-.892.712-1.362,1.34a9.454,9.454,0,0,1-1.708,1.893c-1.622,1.248-2.286,1.919-1.838,3.108.193.513.321.568,1.839.295a14.594,14.594,0,0,1,6.136,0c1.517.273,1.646.218,1.84-.295.448-1.19-.216-1.861-1.838-3.108a9.454,9.454,0,0,1-1.708-1.893C1931.57,402.4,1931.038,401.687,1930.678,401.687Z" transform="translate(-1924.311 -400.365)" fill="#333"/>
      </g>
      <g id="Group_14" data-name="Group 14" transform="translate(0 0)">
        <g id="Group_10" data-name="Group 10" transform="translate(9.603)">
          <path id="Path_20" data-name="Path 20" d="M2012.015,333.773a1.935,1.935,0,0,1-.567-.085c-1.247-.382-1.845-1.918-1.362-3.5h0c.484-1.579,1.839-2.516,3.086-2.136s1.845,1.918,1.362,3.5A2.862,2.862,0,0,1,2012.015,333.773Zm-.665-3.2c-.28.915.031,1.707.485,1.846s1.155-.343,1.435-1.258-.031-1.707-.484-1.846-1.155.344-1.435,1.258Z" transform="translate(-2009.919 -327.971)" fill="#333"/>
        </g>
        <g id="Group_11" data-name="Group 11" transform="translate(13.395 4.84)">
          <path id="Path_21" data-name="Path 21" d="M2057.589,391.432a1.735,1.735,0,0,1-.875-.232,2.324,2.324,0,0,1-.492-3.244,2.96,2.96,0,0,1,1.329-1.236,1.889,1.889,0,0,1,1.726.04,2.324,2.324,0,0,1,.492,3.244A2.641,2.641,0,0,1,2057.589,391.432Zm.818-3.579a.822.822,0,0,0-.319.076,1.651,1.651,0,0,0-.719.688c-.355.615-.29,1.266.006,1.438s.894-.1,1.25-.712.289-1.266-.008-1.437A.412.412,0,0,0,2058.407,387.853Z" transform="translate(-2055.798 -386.532)" fill="#333"/>
        </g>
        <g id="Group_12" data-name="Group 12" transform="translate(3.406 0.002)">
          <path id="Path_22" data-name="Path 22" d="M1937.623,333.8a2.862,2.862,0,0,1-2.519-2.221,3.417,3.417,0,0,1,0-2.1,2.027,2.027,0,0,1,3.273-1,3.416,3.416,0,0,1,1.174,1.737h0a3.418,3.418,0,0,1,0,2.1,2.14,2.14,0,0,1-1.361,1.4A1.936,1.936,0,0,1,1937.623,333.8Zm-.6-4.479a.583.583,0,0,0-.171.025.861.861,0,0,0-.5.568,2.122,2.122,0,0,0,.014,1.277c.28.914.98,1.4,1.435,1.258a.861.861,0,0,0,.5-.568,2.121,2.121,0,0,0-.014-1.278h0a2.12,2.12,0,0,0-.7-1.066A.99.99,0,0,0,1937.024,329.321Z" transform="translate(-1934.94 -327.999)" fill="#333"/>
        </g>
        <g id="Group_13" data-name="Group 13" transform="translate(0 4.84)">
          <path id="Path_23" data-name="Path 23" d="M1896.333,391.43a2.114,2.114,0,0,1-.856-.188,2.958,2.958,0,0,1-1.329-1.236,2.324,2.324,0,0,1,.492-3.244,1.891,1.891,0,0,1,1.726-.04,2.959,2.959,0,0,1,1.329,1.236,2.324,2.324,0,0,1-.491,3.244A1.731,1.731,0,0,1,1896.333,391.43Zm-.823-3.575a.413.413,0,0,0-.209.052c-.3.171-.363.822-.008,1.438a1.652,1.652,0,0,0,.72.688.612.612,0,0,0,.529.024c.3-.171.363-.822.007-1.437a1.653,1.653,0,0,0-.719-.688A.823.823,0,0,0,1895.51,387.855Z" transform="translate(-1893.725 -386.534)" fill="#333"/>
        </g>
      </g>
    </g>
    <g id="Group_18" data-name="Group 18" transform="translate(1768.993 264.721)">
      <g id="Group_16" data-name="Group 16" transform="translate(0 0)">
        <path id="Path_24" data-name="Path 24" d="M1776.374,550.808a.652.652,0,0,1-.17-.022.66.66,0,0,1-.468-.465L1774.4,545.4l-4.917-1.336a.661.661,0,0,1-.294-1.106l6.406-6.406.935.935-5.6,5.6,4.181,1.136a.662.662,0,0,1,.465.464l1.139,4.184,7.366-7.366.935.935-8.172,8.172A.66.66,0,0,1,1776.374,550.808Z" transform="translate(-1768.993 -536.554)" fill="#333"/>
      </g>
      <g id="Group_17" data-name="Group 17" transform="translate(22.388 0.001)">
        <path id="Path_25" data-name="Path 25" d="M2048.513,550.823a.659.659,0,0,1-.467-.194l-8.171-8.171.935-.935,7.364,7.365,1.139-4.184a.662.662,0,0,1,.465-.464l4.181-1.136-5.6-5.6.935-.935,6.4,6.4a.661.661,0,0,1-.294,1.106l-4.917,1.336-1.339,4.919a.66.66,0,0,1-.638.487Z" transform="translate(-2039.875 -536.57)" fill="#333"/>
      </g>
    </g>
    <g id="Group_19" data-name="Group 19" transform="translate(1773.23 240.23)">
      <path id="Path_26" data-name="Path 26" d="M1835.228,270.163a4.5,4.5,0,0,1-2.36-.928,4.913,4.913,0,0,0-1.23-.643,5.147,5.147,0,0,0-1.446-.067,4.378,4.378,0,0,1-2.449-.367,4.472,4.472,0,0,1-1.555-1.957,3.294,3.294,0,0,0-1.966-1.966,4.473,4.473,0,0,1-1.957-1.555,4.384,4.384,0,0,1-.367-2.448,5.119,5.119,0,0,0-.067-1.447,4.91,4.91,0,0,0-.642-1.23,3.466,3.466,0,0,1,0-4.72,4.916,4.916,0,0,0,.642-1.23,5.117,5.117,0,0,0,.067-1.447,4.384,4.384,0,0,1,.367-2.449,4.473,4.473,0,0,1,1.957-1.554,3.294,3.294,0,0,0,1.966-1.966,4.474,4.474,0,0,1,1.554-1.957,4.382,4.382,0,0,1,2.448-.367,5.137,5.137,0,0,0,1.447-.067,4.93,4.93,0,0,0,1.23-.642,3.467,3.467,0,0,1,4.72,0,4.906,4.906,0,0,0,1.23.642,5.108,5.108,0,0,0,1.447.067,4.381,4.381,0,0,1,2.448.367,4.473,4.473,0,0,1,1.555,1.958,3.29,3.29,0,0,0,1.966,1.965,4.476,4.476,0,0,1,1.957,1.554,4.379,4.379,0,0,1,.367,2.45,5.131,5.131,0,0,0,.067,1.446,4.919,4.919,0,0,0,.642,1.229,3.467,3.467,0,0,1,0,4.72,4.9,4.9,0,0,0-.642,1.23,5.135,5.135,0,0,0-.067,1.447,4.385,4.385,0,0,1-.367,2.449,4.473,4.473,0,0,1-1.958,1.555,3.292,3.292,0,0,0-1.965,1.965,4.477,4.477,0,0,1-1.555,1.958,4.376,4.376,0,0,1-2.449.367,5.119,5.119,0,0,0-1.446.067,4.92,4.92,0,0,0-1.229.643A4.5,4.5,0,0,1,1835.228,270.163Zm-4.41-2.977a4.483,4.483,0,0,1,1.162.129,5.912,5.912,0,0,1,1.6.8,2.248,2.248,0,0,0,3.3,0,5.912,5.912,0,0,1,1.6-.8,6.149,6.149,0,0,1,1.841-.11,2.18,2.18,0,0,0,2.778-1.615,4.513,4.513,0,0,1,2.526-2.526,2.18,2.18,0,0,0,1.615-2.778,6.153,6.153,0,0,1,.111-1.841,5.925,5.925,0,0,1,.8-1.6,2.248,2.248,0,0,0,0-3.3,5.924,5.924,0,0,1-.8-1.6,6.153,6.153,0,0,1-.111-1.841,2.179,2.179,0,0,0-1.614-2.778,4.512,4.512,0,0,1-2.527-2.527,2.18,2.18,0,0,0-2.777-1.615,6.141,6.141,0,0,1-1.842-.111,5.908,5.908,0,0,1-1.6-.8,2.249,2.249,0,0,0-3.3,0,5.911,5.911,0,0,1-1.6.8,6.165,6.165,0,0,1-1.842.111,2.179,2.179,0,0,0-2.777,1.614,4.515,4.515,0,0,1-2.527,2.527,2.178,2.178,0,0,0-1.614,2.776,6.14,6.14,0,0,1-.111,1.842,5.9,5.9,0,0,1-.8,1.6,2.249,2.249,0,0,0,0,3.3,5.9,5.9,0,0,1,.8,1.6,6.143,6.143,0,0,1,.111,1.842,2.179,2.179,0,0,0,1.614,2.777,4.514,4.514,0,0,1,2.527,2.527,2.179,2.179,0,0,0,2.778,1.614C1830.363,267.2,1830.59,267.186,1830.818,267.186Z" transform="translate(-1820.262 -240.23)" fill="#333"/>
    </g>
    <g id="Group_20" data-name="Group 20" transform="translate(1773.23 240.23)">
      <path id="Path_27" data-name="Path 27" d="M1835.228,270.163a4.5,4.5,0,0,1-2.36-.928,4.913,4.913,0,0,0-1.23-.643,5.147,5.147,0,0,0-1.446-.067,4.378,4.378,0,0,1-2.449-.367,4.472,4.472,0,0,1-1.555-1.957,3.294,3.294,0,0,0-1.966-1.966,4.473,4.473,0,0,1-1.957-1.555,4.384,4.384,0,0,1-.367-2.448,5.119,5.119,0,0,0-.067-1.447,4.91,4.91,0,0,0-.642-1.23,3.466,3.466,0,0,1,0-4.72,4.916,4.916,0,0,0,.642-1.23,5.117,5.117,0,0,0,.067-1.447,4.384,4.384,0,0,1,.367-2.449,4.473,4.473,0,0,1,1.957-1.554,3.294,3.294,0,0,0,1.966-1.966,4.474,4.474,0,0,1,1.554-1.957,4.382,4.382,0,0,1,2.448-.367,5.137,5.137,0,0,0,1.447-.067,4.93,4.93,0,0,0,1.23-.642,3.467,3.467,0,0,1,4.72,0,4.906,4.906,0,0,0,1.23.642,5.108,5.108,0,0,0,1.447.067,4.381,4.381,0,0,1,2.448.367,4.473,4.473,0,0,1,1.555,1.958,3.29,3.29,0,0,0,1.966,1.965,4.476,4.476,0,0,1,1.957,1.554,4.379,4.379,0,0,1,.367,2.45,5.131,5.131,0,0,0,.067,1.446,4.919,4.919,0,0,0,.642,1.229,3.467,3.467,0,0,1,0,4.72,4.9,4.9,0,0,0-.642,1.23,5.135,5.135,0,0,0-.067,1.447,4.385,4.385,0,0,1-.367,2.449,4.473,4.473,0,0,1-1.958,1.555,3.292,3.292,0,0,0-1.965,1.965,4.477,4.477,0,0,1-1.555,1.958,4.376,4.376,0,0,1-2.449.367,5.119,5.119,0,0,0-1.446.067,4.92,4.92,0,0,0-1.229.643A4.5,4.5,0,0,1,1835.228,270.163Zm-4.41-2.977a4.483,4.483,0,0,1,1.162.129,5.912,5.912,0,0,1,1.6.8,2.248,2.248,0,0,0,3.3,0,5.912,5.912,0,0,1,1.6-.8,6.149,6.149,0,0,1,1.841-.11,2.18,2.18,0,0,0,2.778-1.615,4.513,4.513,0,0,1,2.526-2.526,2.18,2.18,0,0,0,1.615-2.778,6.153,6.153,0,0,1,.111-1.841,5.925,5.925,0,0,1,.8-1.6,2.248,2.248,0,0,0,0-3.3,5.924,5.924,0,0,1-.8-1.6,6.153,6.153,0,0,1-.111-1.841,2.179,2.179,0,0,0-1.614-2.778,4.512,4.512,0,0,1-2.527-2.527,2.18,2.18,0,0,0-2.777-1.615,6.141,6.141,0,0,1-1.842-.111,5.908,5.908,0,0,1-1.6-.8,2.249,2.249,0,0,0-3.3,0,5.911,5.911,0,0,1-1.6.8,6.165,6.165,0,0,1-1.842.111,2.179,2.179,0,0,0-2.777,1.614,4.515,4.515,0,0,1-2.527,2.527,2.178,2.178,0,0,0-1.614,2.776,6.14,6.14,0,0,1-.111,1.842,5.9,5.9,0,0,1-.8,1.6,2.249,2.249,0,0,0,0,3.3,5.9,5.9,0,0,1,.8,1.6,6.143,6.143,0,0,1,.111,1.842,2.179,2.179,0,0,0,1.614,2.777,4.514,4.514,0,0,1,2.527,2.527,2.179,2.179,0,0,0,2.778,1.614C1830.363,267.2,1830.59,267.186,1830.818,267.186Z" transform="translate(-1820.262 -240.23)" fill="#333"/>
    </g>
  </g>
</svg>
