<svg id="noun_Running_1747729" xmlns="http://www.w3.org/2000/svg" width="26.599" height="24.796" viewBox="0 0 26.599 24.796">
  <path id="Path_85" data-name="Path 85" d="M8.929,13.188a12.466,12.466,0,0,0,2.771,4.2l3.126,3.126a2.6,2.6,0,0,0,1.849.765h3.717V19.509H16.675a.854.854,0,0,1-.6-.246l-3.124-3.125a10.692,10.692,0,0,1-2.379-3.607A12.452,12.452,0,0,0,7.8,8.328l-3-3L7.979,2.144a1.283,1.283,0,0,1,1.773,0l.774.775-.362,1.239a2.659,2.659,0,0,0,.671,2.629l.943.943,1.254-1.254-.942-.942a.887.887,0,0,1-.224-.877l.658-2.248L11.006.89a3.1,3.1,0,0,0-4.281,0L2.293,5.323,6.55,9.582a10.68,10.68,0,0,1,2.379,3.607ZM2.661,24.83H8.867V23.056H2.66V24.83ZM0,21.283H6.207V19.51H0v1.773Zm26.6-.872v1.758a2.664,2.664,0,0,1-2.66,2.66H16.38a6.151,6.151,0,0,1-4.374-1.811L.995,12a3.4,3.4,0,0,1,0-4.8L2.248,8.458a1.622,1.622,0,0,0,0,2.293L13.26,21.764a4.389,4.389,0,0,0,3.121,1.292h7.557a.887.887,0,0,0,.887-.887V20.411a.884.884,0,0,0-.364-.714L20.053,16.49l-.633-2.529-4.355,1.089-.43-1.72,4.356-1.089-.457-1.826L14.179,11.5l-.43-1.72L18.1,8.694l-.8-3.209a.881.881,0,0,0-1.075-.645l-1.316.329-.429-1.72L15.8,3.121a2.658,2.658,0,0,1,3.225,1.935l2.6,10.379L25.5,18.263A2.662,2.662,0,0,1,26.6,20.41Z" transform="translate(0 -0.033)" fill="#232474" fill-rule="evenodd"/>
</svg>
