<svg id="noun_sleep_29979" xmlns="http://www.w3.org/2000/svg" width="19.838" height="23.558" viewBox="0 0 19.838 23.558">
  <g id="Group_77" data-name="Group 77" transform="translate(0 0)">
    <path id="Path_88" data-name="Path 88" d="M31.737,8a11.78,11.78,0,1,0-.531,18,.62.62,0,0,0-.522-1.09,8.187,8.187,0,0,1-9.864-6.51.62.62,0,1,0-1.22.222,9.419,9.419,0,0,0,8.728,7.714,10.443,10.443,0,0,1-4.444.978A10.539,10.539,0,1,1,28.875,7.5a9.442,9.442,0,0,0-7.048,3.168.62.62,0,0,0,.927.824,8.185,8.185,0,0,1,8.4-2.429A.62.62,0,0,0,31.737,8Z" transform="translate(-12.106 -5)" fill="#232474"/>
    <path id="Path_89" data-name="Path 89" d="M51,47.586a.619.619,0,0,0,.572.383H55.04a.62.62,0,1,0,0-1.239H53.065l2.165-2.166a.62.62,0,0,0-.438-1.058H51.567a.62.62,0,0,0,0,1.24h1.727L51.129,46.91A.618.618,0,0,0,51,47.586Z" transform="translate(-40.781 -33.426)" fill="#232474"/>
    <path id="Path_90" data-name="Path 90" d="M74.438,55.267H72.959l1.7-1.7a.62.62,0,0,0-.438-1.058H71.462a.62.62,0,1,0,0,1.24h1.266l-1.7,1.705a.62.62,0,0,0,.438,1.058h2.976a.62.62,0,0,0,0-1.24Z" transform="translate(-55.467 -40.07)" fill="#232474"/>
    <path id="Path_91" data-name="Path 91" d="M27.31,35.811a.62.62,0,0,0,.573.383h4.712a.62.62,0,1,0,0-1.24H29.38L32.7,31.637a.62.62,0,0,0-.438-1.058H27.883a.62.62,0,0,0,0,1.24h2.878l-3.316,3.317A.619.619,0,0,0,27.31,35.811Z" transform="translate(-23.296 -23.884)" fill="#232474"/>
  </g>
</svg>
