<svg id="noun_Work_2261687" xmlns="http://www.w3.org/2000/svg" width="21.077" height="17.357" viewBox="0 0 21.077 17.357">
  <g id="_21" data-name="21" transform="translate(0 0)">
    <path id="Path_87" data-name="Path 87" d="M22.217,7.48h-3.1V6.86A1.86,1.86,0,0,0,17.258,5H9.819a1.86,1.86,0,0,0-1.86,1.86v.62H4.86A1.785,1.785,0,0,0,3,9.178v3.5a1.711,1.711,0,0,0,1.24,1.587v6.2a1.86,1.86,0,0,0,1.86,1.9H20.977a1.86,1.86,0,0,0,1.86-1.86V14.3a1.711,1.711,0,0,0,1.24-1.587V9.178a1.785,1.785,0,0,0-1.86-1.7ZM9.2,6.86a.62.62,0,0,1,.62-.62h7.439a.62.62,0,0,1,.62.62v.62H9.2ZM20.977,21.118H6.1a.62.62,0,0,1-.62-.62V14.609l7.513,2.033a1.947,1.947,0,0,0,.558.087h0a1.823,1.823,0,0,0,.533-.074L21.6,14.609V20.5A.62.62,0,0,1,20.977,21.118Zm1.86-8.443a.484.484,0,0,1-.409.422l-8.679,2.356a.694.694,0,0,1-.409,0L4.661,13.108a.484.484,0,0,1-.422-.434v-3.5c0-.248.285-.459.62-.459h3.1v1.24H9.2V8.719h8.679v1.24h1.24V8.719h3.1c.335,0,.62.211.62.459ZM14.158,14.3a.62.62,0,1,1-.62-.62A.62.62,0,0,1,14.158,14.3Z" transform="translate(-3 -5)" fill="#232474"/>
  </g>
</svg>
