<svg xmlns="http://www.w3.org/2000/svg" width="76.287" height="62.505" viewBox="0 0 76.287 62.505">
  <g id="Group_69" data-name="Group 69" transform="translate(-2105.333 -262.412)">
    <g id="Group_55" data-name="Group 55" transform="translate(2105.333 281.053)">
      <g id="Group_54" data-name="Group 54" transform="translate(0 0)">
        <path id="Path_54" data-name="Path 54" d="M2122.556,407.8h-1.1a16.122,16.122,0,0,1,0-32.244h10.489v-4.47a1.156,1.156,0,0,1,1.967-.824l10.062,9.9a1.156,1.156,0,0,1,0,1.648l-10.062,9.9a1.156,1.156,0,0,1-1.967-.824v-4.47h-10.49a5.259,5.259,0,0,0-.812,10.454,1.156,1.156,0,1,1-.355,2.284,7.57,7.57,0,0,1,1.167-15.05H2133.1a1.155,1.155,0,0,1,1.156,1.156v2.866l7.258-7.142-7.258-7.142v2.866a1.156,1.156,0,0,1-1.156,1.156h-11.646a13.811,13.811,0,0,0,0,27.621h1.1a1.156,1.156,0,0,1,0,2.312Z" transform="translate(-2105.333 -369.929)" fill="#fff"/>
      </g>
    </g>
    <g id="Group_56" data-name="Group 56" transform="translate(2127.393 309.774)">
      <path id="Path_55" data-name="Path 55" d="M2232.571,535.586" transform="translate(-2232.571 -535.586)" fill="#fff" stroke="#505050" stroke-linecap="round" stroke-linejoin="round" stroke-width="13.333"/>
    </g>
    <g id="Group_57" data-name="Group 57" transform="translate(2160.355 289.663)">
      <path id="Path_56" data-name="Path 56" d="M2442.795,452.977a1.155,1.155,0,0,1-1.062-.7,27.209,27.209,0,0,1-2.089-9.1c0-4.48-.9-12.918-4.294-16.128-1.106-1.048-7.887-3.754-11.9-5.214a1.156,1.156,0,1,1,.79-2.172c1.809.658,10.924,4.024,12.7,5.708,4.876,4.617,5.017,16.47,5.017,17.806a25.278,25.278,0,0,0,1.9,8.191,1.157,1.157,0,0,1-1.062,1.611Z" transform="translate(-2422.686 -419.591)" fill="#fff"/>
    </g>
    <g id="Group_58" data-name="Group 58" transform="translate(2147.42 287.331)">
      <path id="Path_57" data-name="Path 57" d="M2367.822,437.2a1.159,1.159,0,0,1-.308-.042c-4.178-1.152-7.192-3.292-8.958-6.361a14.159,14.159,0,0,1-1.749-6.212,1.265,1.265,0,0,0-.226-.635c-.3-.429-.923-1.279-1.649-2.263a81.555,81.555,0,0,1-6.116-8.937c-.5-1.071-1.816-3.917,1.058-5.832s4.951.086,6.78,1.855c1.8,1.741,2.541,2.478,3.4,3.332.737.735,1.573,1.567,3.266,3.22a8.392,8.392,0,0,0,2.337,1.468,12.619,12.619,0,0,1,4.425,3.179,1.156,1.156,0,1,1-1.732,1.531,10.514,10.514,0,0,0-3.706-2.633,10.455,10.455,0,0,1-2.939-1.892c-1.7-1.661-2.542-2.5-3.283-3.237-.85-.847-1.584-1.579-3.373-3.308-2.156-2.084-2.774-2.338-3.891-1.594-.848.565-1.084,1.123-.243,2.936a90.823,90.823,0,0,0,5.879,8.538c.768,1.041,1.375,1.863,1.691,2.322a3.594,3.594,0,0,1,.629,1.781c.594,8.188,6.933,9.937,9.017,10.511a1.156,1.156,0,0,1-.307,2.27Z" transform="translate(-2348.079 -406.139)" fill="#fff"/>
    </g>
    <g id="Group_59" data-name="Group 59" transform="translate(2156.246 317.912)">
      <path id="Path_58" data-name="Path 58" d="M2404.292,589.528a1.155,1.155,0,0,1-1.052-.677c-.4-.874-1.828-3.322-3.578-4.12a1.156,1.156,0,0,1,.959-2.1c2.9,1.323,4.648,5.1,4.722,5.264a1.157,1.157,0,0,1-1.051,1.635Z" transform="translate(-2398.985 -582.524)" fill="#fff"/>
    </g>
    <g id="Group_60" data-name="Group 60" transform="translate(2123.658 299.48)">
      <path id="Path_59" data-name="Path 59" d="M2236.476,496.785h-16.753a8.706,8.706,0,0,1-8.7-8.7V477.366a1.156,1.156,0,0,1,2.312,0V488.09a6.391,6.391,0,0,0,6.384,6.384h16.753a6.347,6.347,0,0,0,4.473-1.829,6.412,6.412,0,0,0,.946-1.178,1.156,1.156,0,0,1,1.961,1.224,8.706,8.706,0,0,1-7.38,4.095Z" transform="translate(-2211.027 -476.21)" fill="#fff"/>
    </g>
    <g id="Group_61" data-name="Group 61" transform="translate(2123.658 262.412)">
      <path id="Path_60" data-name="Path 60" d="M2244.016,287.773a1.156,1.156,0,0,1-1.156-1.156v-15.51a6.391,6.391,0,0,0-6.384-6.384h-16.753a6.391,6.391,0,0,0-6.384,6.384V283.7a1.156,1.156,0,1,1-2.312,0V271.108a8.706,8.706,0,0,1,8.7-8.7h16.753a8.706,8.706,0,0,1,8.7,8.7v15.51A1.156,1.156,0,0,1,2244.016,287.773Z" transform="translate(-2211.027 -262.412)" fill="#fff"/>
    </g>
    <g id="Group_62" data-name="Group 62" transform="translate(2123.658 272.229)">
      <path id="Path_61" data-name="Path 61" d="M2244.016,321.345h-31.833a1.156,1.156,0,1,1,0-2.312h31.833a1.156,1.156,0,0,1,0,2.312Z" transform="translate(-2211.027 -319.033)" fill="#fff"/>
    </g>
    <g id="Group_63" data-name="Group 63" transform="translate(2137.343 267.32)">
      <path id="Path_62" data-name="Path 62" d="M2295.579,293.035h-4.462a1.156,1.156,0,1,1,0-2.312h4.462a1.156,1.156,0,0,1,0,2.312Z" transform="translate(-2289.961 -290.723)" fill="#fff"/>
    </g>
    <g id="Group_64" data-name="Group 64" transform="translate(2123.658 307.927)">
      <path id="Path_63" data-name="Path 63" d="M2240.61,527.241h-28.425a1.156,1.156,0,1,1,0-2.312h28.425a1.156,1.156,0,1,1,0,2.312Z" transform="translate(-2211.029 -524.929)" fill="#fff"/>
    </g>
    <g id="Group_65" data-name="Group 65" transform="translate(2166.121 268.234)">
      <path id="Path_64" data-name="Path 64" d="M2457.1,311.274a1.156,1.156,0,0,1-.816-1.974,8,8,0,0,0,0-11.336,1.156,1.156,0,0,1,1.632-1.637,10.314,10.314,0,0,1,0,14.61A1.152,1.152,0,0,1,2457.1,311.274Z" transform="translate(-2455.943 -295.99)" fill="#fff"/>
    </g>
    <g id="Group_66" data-name="Group 66" transform="translate(2161.892 273.034)">
      <path id="Path_65" data-name="Path 65" d="M2432.723,329.335a1.156,1.156,0,0,1-.969-1.785,1.9,1.9,0,0,0-.011-2.077,1.156,1.156,0,1,1,1.927-1.277,4.207,4.207,0,0,1,.024,4.612A1.154,1.154,0,0,1,2432.723,329.335Z" transform="translate(-2431.551 -323.678)" fill="#fff"/>
    </g>
    <g id="Group_67" data-name="Group 67" transform="translate(2145.552 276.431)">
      <path id="Path_66" data-name="Path 66" d="M2343.236,350.353a1.152,1.152,0,0,1-.817-.339l-4.771-4.771a1.156,1.156,0,0,1,1.634-1.635l4.771,4.772a1.156,1.156,0,0,1-.817,1.973Z" transform="translate(-2337.309 -343.27)" fill="#fff"/>
    </g>
    <g id="Group_68" data-name="Group 68" transform="translate(2150.069 275.832)">
      <path id="Path_67" data-name="Path 67" d="M2366.047,343.658a1.152,1.152,0,0,1-.817-.338l-1.53-1.53a1.156,1.156,0,0,1,1.635-1.635l1.53,1.529a1.156,1.156,0,0,1-.817,1.973Z" transform="translate(-2363.362 -339.817)" fill="#fff"/>
    </g>
  </g>
</svg>
