<svg xmlns="http://www.w3.org/2000/svg" width="66.838" height="61.851" viewBox="0 0 66.838 61.851">
  <g id="Group_70" data-name="Group 70" transform="translate(-2740.001 -233.752)">
    <path id="Path_68" data-name="Path 68" d="M2753.12,369.087a15.9,15.9,0,0,0,6.894-1.577,12.369,12.369,0,0,0,5.1,1.526,1.013,1.013,0,0,0,.8-1.681,8.872,8.872,0,0,1-1.687-3.181,8.472,8.472,0,0,0,1.873-5.3,9.093,9.093,0,0,0-3.978-7.216,15.922,15.922,0,0,0-18.241.13,8.646,8.646,0,0,0,.1,14.489,15.122,15.122,0,0,0,9.017,2.806Zm-7.931-4.43a6.635,6.635,0,0,1-.081-11.258,13.122,13.122,0,0,1,7.881-2.518h.11a13.091,13.091,0,0,1,7.806,2.405,7.123,7.123,0,0,1,3.163,5.607,6.582,6.582,0,0,1-1.7,4.35,1.013,1.013,0,0,0-.233.813,8.447,8.447,0,0,0,.856,2.527,10.11,10.11,0,0,1-2.4-1.089,1.012,1.012,0,0,0-1.023-.032,13.725,13.725,0,0,1-6.457,1.6H2753A13.094,13.094,0,0,1,2745.189,364.657Z" transform="translate(0 -97.619)" fill="#fff"/>
    <path id="Path_69" data-name="Path 69" d="M2821.463,413.777v-3.893a1.013,1.013,0,0,0-2.025,0v3.893a1.013,1.013,0,1,0,2.025,0Z" transform="translate(-67.371 -148.518)" fill="#fff"/>
    <path id="Path_70" data-name="Path 70" d="M2820.45,385.6a1.013,1.013,0,0,0,1.013-1.013v-.323a1.013,1.013,0,0,0-2.025,0v.323A1.013,1.013,0,0,0,2820.45,385.6Z" transform="translate(-67.371 -126.786)" fill="#fff"/>
    <path id="Path_71" data-name="Path 71" d="M3063.444,443.55a25.183,25.183,0,0,1-1.9-8.194c0-1.322-.139-13.049-4.943-17.6-1.748-1.655-10.783-4.991-12.577-5.644a1.013,1.013,0,1,0-.692,1.9c4,1.454,10.761,4.155,11.876,5.211,3.4,3.222,4.311,11.654,4.311,16.128a26.893,26.893,0,0,0,2.065,8.992,1.013,1.013,0,0,0,1.862-.8Z" transform="translate(-256.687 -151.216)" fill="#fff"/>
    <path id="Path_72" data-name="Path 72" d="M2975.329,407.408a8.441,8.441,0,0,1-2.359-1.484c-1.683-1.643-2.514-2.471-3.247-3.2-.852-.848-1.586-1.581-3.375-3.31s-3.8-3.674-6.568-1.828-1.484,4.591-1,5.626a81.131,81.131,0,0,0,6.065,8.861c.722.978,1.345,1.823,1.641,2.251a1.392,1.392,0,0,1,.248.7,13.953,13.953,0,0,0,1.721,6.116c1.737,3.018,4.706,5.124,8.822,6.259a1.013,1.013,0,1,0,.539-1.952c-2.093-.577-8.464-2.335-9.061-10.569a3.445,3.445,0,0,0-.6-1.7c-.313-.454-.915-1.27-1.678-2.3a90.105,90.105,0,0,1-5.858-8.51c-.872-1.881-.6-2.495.29-3.089,1.173-.782,1.852-.513,4.037,1.6,1.778,1.719,2.508,2.446,3.354,3.289.736.734,1.571,1.566,3.262,3.216a10.281,10.281,0,0,0,2.886,1.855,10.568,10.568,0,0,1,3.725,2.649,1.013,1.013,0,0,0,1.517-1.342A12.432,12.432,0,0,0,2975.329,407.408Z" transform="translate(-184.936 -138.313)" fill="#fff"/>
    <path id="Path_73" data-name="Path 73" d="M3017.211,596.973a1.013,1.013,0,1,0-.84,1.843c2.143.977,3.609,4.131,3.623,4.162a1.013,1.013,0,0,0,1.843-.84C3021.765,601.98,3020.047,598.266,3017.211,596.973Z" transform="translate(-233.886 -307.968)" fill="#fff"/>
    <path id="Path_74" data-name="Path 74" d="M2834.616,504.018a1.013,1.013,0,0,0-1.4.323,6.531,6.531,0,0,1-.96,1.2,6.444,6.444,0,0,1-4.541,1.857h-16.651a6.488,6.488,0,0,1-6.481-6.481v-1.25h27.239a1.013,1.013,0,0,0,0-2.025h-27.239v-5.061a1.013,1.013,0,1,0-2.025,0v8.337a8.516,8.516,0,0,0,8.507,8.507h16.651a8.458,8.458,0,0,0,5.961-2.438,8.552,8.552,0,0,0,1.259-1.568A1.013,1.013,0,0,0,2834.616,504.018Z" transform="translate(-53.058 -218.648)" fill="#fff"/>
    <path id="Path_75" data-name="Path 75" d="M2803.575,249.705a1.013,1.013,0,0,0,1.013-1.013v-3.158H2834.2v12.139a1.013,1.013,0,1,0,2.025,0V242.259a8.516,8.516,0,0,0-8.507-8.507h-16.651a8.516,8.516,0,0,0-8.507,8.507v6.434A1.013,1.013,0,0,0,2803.575,249.705Zm7.494-13.928h16.651a6.489,6.489,0,0,1,6.481,6.481v1.25h-29.613v-1.25A6.488,6.488,0,0,1,2811.069,235.777Z" transform="translate(-53.058)" fill="#fff"/>
    <path id="Path_76" data-name="Path 76" d="M2893.116,267.892h4.435a1.013,1.013,0,0,0,0-2.025h-4.435a1.013,1.013,0,1,0,0,2.025Z" transform="translate(-128.997 -27.237)" fill="#fff"/>
    <path id="Path_77" data-name="Path 77" d="M3080.684,286.463a1.013,1.013,0,0,0,1.432,0,10.116,10.116,0,0,0,0-14.328,1.013,1.013,0,1,0-1.43,1.434,8.09,8.09,0,0,1,0,11.459A1.012,1.012,0,0,0,3080.684,286.463Z" transform="translate(-288.681 -32.304)" fill="#fff"/>
    <path id="Path_78" data-name="Path 78" d="M3053.223,305.939a2.013,2.013,0,0,1-.324,1.1,1.013,1.013,0,1,0,1.7,1.1,4.047,4.047,0,0,0-.023-4.435,1.013,1.013,0,0,0-1.689,1.119A2.014,2.014,0,0,1,3053.223,305.939Z" transform="translate(-265.214 -58.942)" fill="#fff"/>
    <path id="Path_79" data-name="Path 79" d="M2952.159,325.773a1.013,1.013,0,0,0,0,1.432l4.743,4.742a1.013,1.013,0,0,0,1.432-1.432l-4.743-4.742A1.013,1.013,0,0,0,2952.159,325.773Z" transform="translate(-179.679 -77.791)" fill="#fff"/>
    <path id="Path_80" data-name="Path 80" d="M2978.615,323.376l-1.52-1.52a1.013,1.013,0,0,0-1.432,1.432l1.521,1.52a1.012,1.012,0,1,0,1.432-1.432Z" transform="translate(-199.613 -74.469)" fill="#fff"/>
  </g>
</svg>
