<svg id="Group_51" data-name="Group 51" xmlns="http://www.w3.org/2000/svg" width="77.022" height="55.016" viewBox="0 0 77.022 55.016">
  <path id="Path_30" data-name="Path 30" d="M9.375,49.385A1.376,1.376,0,0,1,8,48.009V16.375A1.376,1.376,0,0,1,9.375,15H48.808a1.375,1.375,0,0,1,0,2.751H10.751V48.009A1.376,1.376,0,0,1,9.375,49.385Z" transform="translate(-2.498 -10.874)" fill="#0e9ba6"/>
  <path id="Path_31" data-name="Path 31" d="M64.391,57.255H9.375A1.376,1.376,0,0,1,8,55.88V49a1.375,1.375,0,0,1,2.751,0v5.5H63.016V39.375a1.375,1.375,0,0,1,2.751,0v16.5A1.376,1.376,0,0,1,64.391,57.255Z" transform="translate(-2.498 -2.24)" fill="#0e9ba6"/>
  <path id="Path_32" data-name="Path 32" d="M41.375,50.379a1.375,1.375,0,1,1,0-2.751A4.126,4.126,0,0,0,45.5,43.5V39.375a1.375,1.375,0,0,1,2.751,0V43.5A6.878,6.878,0,0,1,41.375,50.379Z" transform="translate(9.514 -2.24)" fill="#0e9ba6"/>
  <path id="Path_33" data-name="Path 33" d="M54.889,50.379H10.877A6.878,6.878,0,0,1,4,43.5V39.375A1.376,1.376,0,0,1,5.375,38H49.388a1.376,1.376,0,0,1,1.375,1.375V43.5a4.126,4.126,0,0,0,4.126,4.126,1.375,1.375,0,0,1,0,2.751ZM6.751,40.751V43.5a4.126,4.126,0,0,0,4.126,4.126H49.388A6.876,6.876,0,0,1,48.013,43.5V40.751Z" transform="translate(-4 -2.24)" fill="#0e9ba6"/>
  <path id="Path_34" data-name="Path 34" d="M46.511,24.751H9.375a1.375,1.375,0,1,1,0-2.751H46.511a1.375,1.375,0,1,1,0,2.751Z" transform="translate(-2.498 -8.246)" fill="#0e9ba6"/>
  <path id="Path_35" data-name="Path 35" d="M15.375,19.877A1.376,1.376,0,0,1,14,18.5V14.375a1.375,1.375,0,1,1,2.751,0V18.5A1.376,1.376,0,0,1,15.375,19.877Z" transform="translate(-0.246 -11.625)" fill="#0e9ba6"/>
  <path id="Path_36" data-name="Path 36" d="M21.375,19.877A1.376,1.376,0,0,1,20,18.5V14.375a1.375,1.375,0,1,1,2.751,0V18.5A1.376,1.376,0,0,1,21.375,19.877Z" transform="translate(2.006 -11.625)" fill="#0e9ba6"/>
  <path id="Path_37" data-name="Path 37" d="M27.375,19.877A1.376,1.376,0,0,1,26,18.5V14.375a1.375,1.375,0,1,1,2.751,0V18.5A1.376,1.376,0,0,1,27.375,19.877Z" transform="translate(4.259 -11.625)" fill="#0e9ba6"/>
  <path id="Path_38" data-name="Path 38" d="M33.375,19.877A1.376,1.376,0,0,1,32,18.5V14.375a1.375,1.375,0,1,1,2.751,0V18.5A1.376,1.376,0,0,1,33.375,19.877Z" transform="translate(6.511 -11.625)" fill="#0e9ba6"/>
  <path id="Path_39" data-name="Path 39" d="M39.375,19.877A1.376,1.376,0,0,1,38,18.5V14.375a1.375,1.375,0,1,1,2.751,0V18.5A1.376,1.376,0,0,1,39.375,19.877Z" transform="translate(8.763 -11.625)" fill="#0e9ba6"/>
  <path id="Path_40" data-name="Path 40" d="M15.375,28.753a1.445,1.445,0,0,1-.977-.4,1.6,1.6,0,0,1-.289-.454,1.293,1.293,0,0,1,0-1.045A1.6,1.6,0,0,1,14.4,26.4a1.375,1.375,0,0,1,1.945-.008l.008.008a1.6,1.6,0,0,1,.289.454,1.293,1.293,0,0,1,0,1.045,1.6,1.6,0,0,1-.289.454A1.445,1.445,0,0,1,15.375,28.753Z" transform="translate(-0.246 -6.747)" fill="#0e9ba6"/>
  <path id="Path_41" data-name="Path 41" d="M21.375,28.751h-.261a.839.839,0,0,1-.261-.083,1.043,1.043,0,0,1-.248-.124L20.4,28.38a1.45,1.45,0,0,1-.4-1,1.39,1.39,0,0,1,.11-.523A1.6,1.6,0,0,1,20.4,26.4l.206-.165a1.042,1.042,0,0,1,.248-.124.839.839,0,0,1,.261-.083,1.269,1.269,0,0,1,.784.083,1.24,1.24,0,0,1,.743.743,1.293,1.293,0,0,1,0,1.045,1.38,1.38,0,0,1-.289.454A1.445,1.445,0,0,1,21.375,28.751Z" transform="translate(2.006 -6.745)" fill="#0e9ba6"/>
  <path id="Path_42" data-name="Path 42" d="M27.378,28.759H27.1l-.248-.083a1.043,1.043,0,0,1-.248-.124,2.356,2.356,0,0,1-.206-.165,1.375,1.375,0,0,1-.008-1.945l.008-.008.206-.165a1.042,1.042,0,0,1,.248-.124l.248-.138a1.392,1.392,0,1,1,.275,2.751Z" transform="translate(4.256 -6.752)" fill="#0e9ba6"/>
  <path id="Path_43" data-name="Path 43" d="M33.375,28.751a1.375,1.375,0,1,1,.96-.4A1.376,1.376,0,0,1,33.375,28.751Z" transform="translate(6.511 -6.744)" fill="#0e9ba6"/>
  <path id="Path_44" data-name="Path 44" d="M15.375,32.753a1.374,1.374,0,0,1-.977-.4,1.6,1.6,0,0,1-.289-.454,1.293,1.293,0,0,1,0-1.045A1.6,1.6,0,0,1,14.4,30.4a1.375,1.375,0,0,1,1.945-.008l.008.008a1.6,1.6,0,0,1,.289.454,1.39,1.39,0,0,1,.11.523A1.376,1.376,0,0,1,15.375,32.753Z" transform="translate(-0.246 -5.245)" fill="#0e9ba6"/>
  <path id="Path_45" data-name="Path 45" d="M21.378,32.743h-.261a.839.839,0,0,1-.261-.083,1.043,1.043,0,0,1-.248-.124l-.206-.165a1.375,1.375,0,0,1-.008-1.945l.008-.008a2.356,2.356,0,0,1,.206-.165,1.043,1.043,0,0,1,.248-.124.839.839,0,0,1,.261-.083,1.269,1.269,0,0,1,.784.083,1.6,1.6,0,0,1,.454.289,1.375,1.375,0,0,1,.008,1.945l-.008.008a1.6,1.6,0,0,1-.454.289A1.384,1.384,0,0,1,21.378,32.743Z" transform="translate(2.004 -5.236)" fill="#0e9ba6"/>
  <path id="Path_46" data-name="Path 46" d="M33.375,32.751a1.445,1.445,0,0,1-.977-.4,1.356,1.356,0,1,1,1.953,0A1.445,1.445,0,0,1,33.375,32.751Z" transform="translate(6.511 -5.243)" fill="#0e9ba6"/>
  <path id="Path_47" data-name="Path 47" d="M15.375,36.753a1.445,1.445,0,0,1-.977-.4,1.6,1.6,0,0,1-.289-.454,1.39,1.39,0,0,1-.11-.523,1.375,1.375,0,0,1,2.352-.977l.165.206a1.043,1.043,0,0,1,.124.248.875.875,0,0,1,.083.248,1.836,1.836,0,0,1,0,.275,1.39,1.39,0,0,1-.11.523,1.6,1.6,0,0,1-.289.454l-.22.165a.765.765,0,0,1-.234.124.839.839,0,0,1-.261.083Z" transform="translate(-0.246 -3.744)" fill="#0e9ba6"/>
  <path id="Path_48" data-name="Path 48" d="M21.377,36.751h-.261a.839.839,0,0,1-.261-.083l-.248-.124L20.4,36.38a1.45,1.45,0,0,1-.4-1,1.658,1.658,0,0,1,0-.261.839.839,0,0,1,.083-.261,1.043,1.043,0,0,1,.124-.248l.165-.206.206-.165.248-.124a.839.839,0,0,1,.261-.083,1.269,1.269,0,0,1,.784.083,1.6,1.6,0,0,1,.454.289,1.444,1.444,0,0,1,.426.977,1.374,1.374,0,0,1-.4.977,1.6,1.6,0,0,1-.454.289A1.39,1.39,0,0,1,21.377,36.751Z" transform="translate(2.005 -3.742)" fill="#0e9ba6"/>
  <path id="Path_49" data-name="Path 49" d="M27.375,36.759H27.1a.875.875,0,0,1-.248-.083l-.248-.124-.206-.165a1.45,1.45,0,0,1-.4-1,1.164,1.164,0,0,1,.11-.523,1.6,1.6,0,0,1,.289-.454l.206-.165.248-.124a.868.868,0,0,1,.248-.11,1.377,1.377,0,0,1,1.252.371,1.6,1.6,0,0,1,.289.454,1.151,1.151,0,0,1,.11.55A1.376,1.376,0,0,1,27.375,36.759Z" transform="translate(4.259 -3.749)" fill="#0e9ba6"/>
  <path id="Path_50" data-name="Path 50" d="M53.442,40.883A14.442,14.442,0,1,1,67.883,26.442,14.442,14.442,0,0,1,53.442,40.883Zm0-26.132A11.691,11.691,0,1,0,65.132,26.442,11.692,11.692,0,0,0,53.442,14.751Z" transform="translate(9.139 -12)" fill="#0e9ba6"/>
  <path id="Path_51" data-name="Path 51" d="M28.5,42A5.5,5.5,0,1,1,34,36.5,5.5,5.5,0,0,1,28.5,42Zm0-8.252A2.751,2.751,0,1,0,31.252,36.5,2.75,2.75,0,0,0,28.5,33.751Z" transform="translate(3.132 -4.868)" fill="#0e9ba6"/>
  <path id="Path_52" data-name="Path 52" d="M56.508,37.877H30.375a1.375,1.375,0,0,1,0-2.751H55.132V32.375a1.375,1.375,0,1,1,2.751,0V36.5A1.376,1.376,0,0,1,56.508,37.877Z" transform="translate(5.385 -4.868)" fill="#0e9ba6"/>
</svg>
