<svg xmlns="http://www.w3.org/2000/svg" width="18.075" height="18.106" viewBox="0 0 18.075 18.106">
  <path id="phone-call_2_" data-name="phone-call (2)" d="M12,4.058a3.823,3.823,0,0,1,3.02,3.02M12,1a6.881,6.881,0,0,1,6.078,6.07m-.765,6.1v2.294a1.529,1.529,0,0,1-1.667,1.529,15.13,15.13,0,0,1-6.6-2.347A14.908,14.908,0,0,1,4.465,10.06,15.13,15.13,0,0,1,2.118,3.431,1.529,1.529,0,0,1,3.639,1.765H5.933A1.529,1.529,0,0,1,7.462,3.079,9.816,9.816,0,0,0,8,5.228a1.529,1.529,0,0,1-.344,1.613l-.971.971A12.232,12.232,0,0,0,11.269,12.4l.971-.971a1.529,1.529,0,0,1,1.613-.344A9.816,9.816,0,0,0,16,11.619a1.529,1.529,0,0,1,1.315,1.552Z" transform="translate(-1.112 0.104)" fill="none" stroke="#fff" stroke-linecap="round" stroke-linejoin="round" stroke-width="2"/>
</svg>
