<svg xmlns="http://www.w3.org/2000/svg" width="16.046" height="16" viewBox="0 0 16.046 16">
  <path id="noun_Buoy_1515358" d="M28.193,39.69a6.787,6.787,0,1,0-.1-.067A.256.256,0,0,1,28.193,39.69Zm.5-9.872,1.868,1.868a.116.116,0,0,0,.067.033,3.955,3.955,0,0,0,0,4.636.116.116,0,0,1-.067.033l-1.868,1.868a6.68,6.68,0,0,1,0-8.438Zm7.07,6.1a2.665,2.665,0,1,1,0-3.769,2.677,2.677,0,0,1,0,3.769ZM29.627,39.19l1.868-1.868a.116.116,0,0,0,.033-.067,3.955,3.955,0,0,0,4.636,0,.116.116,0,0,1,.033.067l1.868,1.868A6.68,6.68,0,0,1,29.627,39.19Zm9.4-.934-1.868-1.868a.116.116,0,0,0-.067-.033,3.955,3.955,0,0,0,0-4.636.116.116,0,0,1,.067-.033l1.868-1.868A6.68,6.68,0,0,1,39.032,38.256Zm-.934-9.4L36.23,30.719a.116.116,0,0,0-.033.067,3.955,3.955,0,0,0-4.636,0,.116.116,0,0,1-.033-.067L29.66,28.851A6.68,6.68,0,0,1,38.1,28.851Z" transform="translate(-25.787 -26.025)" fill="#fff"/>
</svg>
