<svg xmlns="http://www.w3.org/2000/svg" width="26.986" height="24.467" viewBox="0 0 26.986 24.467">
  <path id="Path_13" data-name="Path 13" d="M18.9,963.364a12.234,12.234,0,1,0,12.174,9.253.941.941,0,1,0-1.813.461,10.363,10.363,0,1,1-3.95-5.852.941.941,0,1,0,1.108-1.509,12.231,12.231,0,0,0-7.518-2.353Zm14.076.608a.941.941,0,0,0-.637.3C29,967.767,23.6,973.709,20.1,977.411l-4.646-4.1a.944.944,0,0,0-1.255,1.411l5.332,4.705a.941.941,0,0,0,1.3-.049c3.506-3.668,9.4-10.176,12.86-13.8a.941.941,0,0,0-.716-1.608Z" transform="translate(-6.983 -963.361)" fill="#ffae00"/>
</svg>
