<svg id="noun_List_3615833" xmlns="http://www.w3.org/2000/svg" width="57" height="57" viewBox="0 0 57 57">
  <rect id="Rectangle_11" data-name="Rectangle 11" width="19" height="2" transform="translate(16.5 26.5)" fill="#ffae00"/>
  <rect id="Rectangle_12" data-name="Rectangle 12" width="10" height="2" transform="translate(16.5 39.5)" fill="#ffae00"/>
  <rect id="Rectangle_13" data-name="Rectangle 13" width="19" height="2" transform="translate(16.5 13.5)" fill="#ffae00"/>
  <path id="Path_7" data-name="Path 7" d="M8.469,20.5a2.969,2.969,0,1,0,2.969,2.969A2.969,2.969,0,0,0,8.469,20.5Zm0,4.75a1.781,1.781,0,1,1,1.781-1.781A1.781,1.781,0,0,1,8.469,25.25Z" transform="translate(1.031 3.844)" fill="#ffae00"/>
  <path id="Path_8" data-name="Path 8" d="M8.469,31.5a2.969,2.969,0,1,0,2.969,2.969A2.969,2.969,0,0,0,8.469,31.5Zm0,4.75a1.781,1.781,0,1,1,1.781-1.781A1.781,1.781,0,0,1,8.469,36.25Z" transform="translate(1.031 5.906)" fill="#ffae00"/>
  <path id="Path_9" data-name="Path 9" d="M8.469,9.5a2.969,2.969,0,1,0,2.969,2.969A2.969,2.969,0,0,0,8.469,9.5Zm0,4.75a1.781,1.781,0,1,1,1.781-1.781A1.781,1.781,0,0,1,8.469,14.25Z" transform="translate(1.031 1.781)" fill="#ffae00"/>
  <path id="Path_10" data-name="Path 10" d="M39.063,26A13.062,13.062,0,1,0,52.125,39.063,13.063,13.063,0,0,0,39.063,26Zm0,23.75A10.688,10.688,0,1,1,49.75,39.063,10.688,10.688,0,0,1,39.063,49.75Z" transform="translate(4.875 4.875)" fill="#ffae00"/>
  <path id="Path_11" data-name="Path 11" d="M41.844,33.358l-5.937,6.223-1.864-1.948a1.188,1.188,0,1,0-1.71,1.639l2.707,2.85a1.188,1.188,0,0,0,1.722,0L43.542,35a1.188,1.188,0,0,0-1.71-1.639Z" transform="translate(5.988 6.198)" fill="#ffae00"/>
  <path id="Path_12" data-name="Path 12" d="M30.673,54.625H3.087a.713.713,0,0,1-.713-.713V3.087a.713.713,0,0,1,.713-.713h38.95a.712.712,0,0,1,.712.712V26.125a1.188,1.188,0,1,0,2.375,0V3.087A3.1,3.1,0,0,0,42.038,0H3.087A3.1,3.1,0,0,0,0,3.087V53.912A3.1,3.1,0,0,0,3.088,57H30.673a1.187,1.187,0,1,0,0-2.375Z" fill="#ffae00"/>
</svg>
