<svg xmlns="http://www.w3.org/2000/svg" width="64.549" height="63.762" viewBox="0 0 64.549 63.762">
  <g id="noun_website_3593022" transform="translate(-9.66 -8.056)">
    <path id="Path_5" data-name="Path 5" d="M27.206,43.47H40.049V68.277A37.42,37.42,0,0,1,27.206,43.47Zm-14,0H23.876A40.686,40.686,0,0,0,34.417,67.41,28.2,28.2,0,0,1,13.2,43.47ZM34.423,12.461a40.665,40.665,0,0,0-10.715,27.5c0,.068,0,.137.009.209H12.987a28.241,28.241,0,0,1,21.44-27.706Zm5.626-.86V40.167H27.032c0-.073,0-.141,0-.209A37.387,37.387,0,0,1,40.044,11.6ZM41.71,8.056c-.05,0-.1,0-.142.009A32.083,32.083,0,0,0,13.952,24a31.75,31.75,0,0,0,0,31.882,32.089,32.089,0,0,0,27.64,15.933.892.892,0,0,0,.118.005A32.128,32.128,0,0,0,66.083,60.633a1.642,1.642,0,0,0-.128-2.39,1.662,1.662,0,0,0-2.392.25,28.757,28.757,0,0,1-14.747,9.125,40.757,40.757,0,0,0,6.435-9.07A1.66,1.66,0,0,0,52.3,57.033a37.54,37.54,0,0,1-8.931,11.226V43.47h3.652a1.652,1.652,0,1,0,0-3.3H43.367V11.5A37.456,37.456,0,0,1,53.713,25.768a1.66,1.66,0,1,0,3.074-1.251,40.836,40.836,0,0,0-7.8-12.206A28.656,28.656,0,0,1,68.565,29.767a1.658,1.658,0,1,0,3.1-1.173A32.059,32.059,0,0,0,41.71,8.056Z" transform="translate(0)" fill="#ffae00"/>
    <path id="Path_6" data-name="Path 6" d="M62.472,34.818a1.042,1.042,0,0,1,.467.129l13.191,7.695-5.08,1.052a1.65,1.65,0,0,0-1.093,2.446L73.6,52.421a.532.532,0,0,1-.2.77l-2.426,1.391a.537.537,0,0,1-.777-.207l-3.643-6.266a1.662,1.662,0,0,0-2.677-.278l-3.436,3.831-.1-15.217a1.607,1.607,0,0,1,.926-1.265.054.054,0,0,0,.027-.018.152.152,0,0,0,.05-.026A2.15,2.15,0,0,1,62.472,34.818Zm.183-3.3c-2.715,0-5.577,2.147-5.638,4.951l.1,15.286a3.763,3.763,0,0,0,1.658,3.508,3.017,3.017,0,0,0,3.573-.759l2.475-2.772,2.5,4.3a3.92,3.92,0,0,0,5.308,1.42l2.428-1.4a3.879,3.879,0,0,0,1.423-5.278l-2.5-4.3,3.679-.756a2.975,2.975,0,0,0,2.442-2.7,3.766,3.766,0,0,0-2.223-3.177L64.616,32.1v.008a3.907,3.907,0,0,0-1.962-.587Z" transform="translate(-5.887 -2.916)" fill="#ffae00"/>
  </g>
</svg>
